<?xml version="1.0" encoding="utf-8" standalone="no"?>
<!DOCTYPE svg PUBLIC "-//W3C//DTD SVG 1.1//EN"
  "http://www.w3.org/Graphics/SVG/1.1/DTD/svg11.dtd">
<svg xmlns:xlink="http://www.w3.org/1999/xlink" width="516.454688pt" height="402.98957pt" viewBox="0 0 516.454688 402.98957" xmlns="http://www.w3.org/2000/svg" version="1.1">
 <metadata>
  <rdf:RDF xmlns:dc="http://purl.org/dc/elements/1.1/" xmlns:cc="http://creativecommons.org/ns#" xmlns:rdf="http://www.w3.org/1999/02/22-rdf-syntax-ns#">
   <cc:Work>
    <dc:type rdf:resource="http://purl.org/dc/dcmitype/StillImage"/>
    <dc:format>image/svg+xml</dc:format>
    <dc:creator>
     <cc:Agent>
      <dc:title>Matplotlib v3.11.1, https://matplotlib.org/</dc:title>
     </cc:Agent>
    </dc:creator>
   </cc:Work>
  </rdf:RDF>
 </metadata>
 <defs>
  <style type="text/css">*{stroke-linejoin: round; stroke-linecap: butt}</style>
 </defs>
 <g id="figure_1">
  <g id="patch_1">
   <path d="M 0 402.98957 
L 516.454688 402.98957 
L 516.454688 0 
L 0 0 
z
" style="fill: #ffffff"/>
  </g>
  <g id="axes_1">
   <g id="patch_2">
    <path d="M 31.354688 198.629435 
L 505.654688 198.629435 
L 505.654688 45.103281 
L 31.354688 45.103281 
z
" style="fill: #ffffff"/>
   </g>
   <g id="matplotlib.axis_1">
    <g id="xtick_1">
     <g id="line2d_1"/>
     <g id="text_1">
      <text style="font-size: 9px; font-family: 'Segoe UI', 'Helvetica Neue', 'Arial', 'DejaVu Sans', sans-serif; text-anchor: middle; fill: #898781" x="55.069688" y="211.181681" transform="rotate(-0 55.069688 211.181681)">mar 29</text>
     </g>
    </g>
    <g id="xtick_2">
     <g id="line2d_2"/>
     <g id="text_2">
      <text style="font-size: 9px; font-family: 'Segoe UI', 'Helvetica Neue', 'Arial', 'DejaVu Sans', sans-serif; text-anchor: middle; fill: #898781" x="102.499688" y="211.423029" transform="rotate(-0 102.499688 211.423029)">mié 30</text>
     </g>
    </g>
    <g id="xtick_3">
     <g id="line2d_3"/>
     <g id="text_3">
      <text style="font-size: 9px; font-family: 'Segoe UI', 'Helvetica Neue', 'Arial', 'DejaVu Sans', sans-serif; text-anchor: middle; fill: #898781" x="149.929688" y="211.207873" transform="rotate(-0 149.929688 211.207873)">jue 1</text>
     </g>
    </g>
    <g id="xtick_4">
     <g id="line2d_4"/>
     <g id="text_4">
      <text style="font-size: 9px; font-family: 'Segoe UI', 'Helvetica Neue', 'Arial', 'DejaVu Sans', sans-serif; text-anchor: middle; fill: #898781" x="197.359688" y="211.207873" transform="rotate(-0 197.359688 211.207873)">vie 2</text>
     </g>
    </g>
    <g id="xtick_5">
     <g id="line2d_5"/>
     <g id="text_5">
      <text style="font-size: 9px; font-family: 'Segoe UI', 'Helvetica Neue', 'Arial', 'DejaVu Sans', sans-serif; text-anchor: middle; fill: #898781" x="244.789687" y="211.423029" transform="rotate(-0 244.789687 211.423029)">sáb 3</text>
     </g>
    </g>
    <g id="xtick_6">
     <g id="line2d_6"/>
     <g id="text_6">
      <text style="font-size: 9px; font-family: 'Segoe UI', 'Helvetica Neue', 'Arial', 'DejaVu Sans', sans-serif; text-anchor: middle; fill: #898781" x="292.219688" y="211.292248" transform="rotate(-0 292.219688 211.292248)">dom 4</text>
     </g>
    </g>
    <g id="xtick_7">
     <g id="line2d_7"/>
     <g id="text_7">
      <text style="font-size: 9px; font-family: 'Segoe UI', 'Helvetica Neue', 'Arial', 'DejaVu Sans', sans-serif; text-anchor: middle; fill: #898781" x="339.649687" y="211.292248" transform="rotate(-0 339.649687 211.292248)">lun 5</text>
     </g>
    </g>
    <g id="xtick_8">
     <g id="line2d_8"/>
     <g id="text_8">
      <text style="font-size: 9px; font-family: 'Segoe UI', 'Helvetica Neue', 'Arial', 'DejaVu Sans', sans-serif; text-anchor: middle; fill: #898781" x="387.079688" y="211.181681" transform="rotate(-0 387.079688 211.181681)">mar 6</text>
     </g>
    </g>
    <g id="xtick_9">
     <g id="line2d_9"/>
     <g id="text_9">
      <text style="font-size: 9px; font-family: 'Segoe UI', 'Helvetica Neue', 'Arial', 'DejaVu Sans', sans-serif; text-anchor: middle; fill: #898781" x="434.509688" y="211.423029" transform="rotate(-0 434.509688 211.423029)">mié 7</text>
     </g>
    </g>
    <g id="xtick_10">
     <g id="line2d_10"/>
     <g id="text_10">
      <text style="font-size: 9px; font-family: 'Segoe UI', 'Helvetica Neue', 'Arial', 'DejaVu Sans', sans-serif; text-anchor: middle; fill: #898781" x="481.939688" y="211.207873" transform="rotate(-0 481.939688 211.207873)">jue 8</text>
     </g>
    </g>
    <g id="xtick_11">
     <g id="line2d_11">
      <path d="M 31.354688 198.629435 
L 31.354688 45.103281 
" clip-path="url(#pcca6787718)" style="fill: none; stroke: #e1e0d9; stroke-width: 0.75; stroke-linecap: square"/>
     </g>
     <g id="line2d_12">
      <defs>
       <path id="mb2d37224fb" d="M 0 0 
L 0 2 
" style="stroke: #000000; stroke-width: 0.6"/>
      </defs>
      <g>
       <use xlink:href="#mb2d37224fb" x="31.354688" y="198.629435" style="stroke: #000000; stroke-width: 0.6"/>
      </g>
     </g>
    </g>
    <g id="xtick_12">
     <g id="line2d_13">
      <path d="M 78.784687 198.629435 
L 78.784687 45.103281 
" clip-path="url(#pcca6787718)" style="fill: none; stroke: #e1e0d9; stroke-width: 0.75; stroke-linecap: square"/>
     </g>
     <g id="line2d_14">
      <g>
       <use xlink:href="#mb2d37224fb" x="78.784687" y="198.629435" style="stroke: #000000; stroke-width: 0.6"/>
      </g>
     </g>
    </g>
    <g id="xtick_13">
     <g id="line2d_15">
      <path d="M 126.214688 198.629435 
L 126.214688 45.103281 
" clip-path="url(#pcca6787718)" style="fill: none; stroke: #e1e0d9; stroke-width: 0.75; stroke-linecap: square"/>
     </g>
     <g id="line2d_16">
      <g>
       <use xlink:href="#mb2d37224fb" x="126.214688" y="198.629435" style="stroke: #000000; stroke-width: 0.6"/>
      </g>
     </g>
    </g>
    <g id="xtick_14">
     <g id="line2d_17">
      <path d="M 173.644688 198.629435 
L 173.644688 45.103281 
" clip-path="url(#pcca6787718)" style="fill: none; stroke: #e1e0d9; stroke-width: 0.75; stroke-linecap: square"/>
     </g>
     <g id="line2d_18">
      <g>
       <use xlink:href="#mb2d37224fb" x="173.644688" y="198.629435" style="stroke: #000000; stroke-width: 0.6"/>
      </g>
     </g>
    </g>
    <g id="xtick_15">
     <g id="line2d_19">
      <path d="M 221.074688 198.629435 
L 221.074688 45.103281 
" clip-path="url(#pcca6787718)" style="fill: none; stroke: #e1e0d9; stroke-width: 0.75; stroke-linecap: square"/>
     </g>
     <g id="line2d_20">
      <g>
       <use xlink:href="#mb2d37224fb" x="221.074688" y="198.629435" style="stroke: #000000; stroke-width: 0.6"/>
      </g>
     </g>
    </g>
    <g id="xtick_16">
     <g id="line2d_21">
      <path d="M 268.504688 198.629435 
L 268.504688 45.103281 
" clip-path="url(#pcca6787718)" style="fill: none; stroke: #e1e0d9; stroke-width: 0.75; stroke-linecap: square"/>
     </g>
     <g id="line2d_22">
      <g>
       <use xlink:href="#mb2d37224fb" x="268.504688" y="198.629435" style="stroke: #000000; stroke-width: 0.6"/>
      </g>
     </g>
    </g>
    <g id="xtick_17">
     <g id="line2d_23">
      <path d="M 315.934688 198.629435 
L 315.934688 45.103281 
" clip-path="url(#pcca6787718)" style="fill: none; stroke: #e1e0d9; stroke-width: 0.75; stroke-linecap: square"/>
     </g>
     <g id="line2d_24">
      <g>
       <use xlink:href="#mb2d37224fb" x="315.934688" y="198.629435" style="stroke: #000000; stroke-width: 0.6"/>
      </g>
     </g>
    </g>
    <g id="xtick_18">
     <g id="line2d_25">
      <path d="M 363.364688 198.629435 
L 363.364688 45.103281 
" clip-path="url(#pcca6787718)" style="fill: none; stroke: #e1e0d9; stroke-width: 0.75; stroke-linecap: square"/>
     </g>
     <g id="line2d_26">
      <g>
       <use xlink:href="#mb2d37224fb" x="363.364688" y="198.629435" style="stroke: #000000; stroke-width: 0.6"/>
      </g>
     </g>
    </g>
    <g id="xtick_19">
     <g id="line2d_27">
      <path d="M 410.794687 198.629435 
L 410.794687 45.103281 
" clip-path="url(#pcca6787718)" style="fill: none; stroke: #e1e0d9; stroke-width: 0.75; stroke-linecap: square"/>
     </g>
     <g id="line2d_28">
      <g>
       <use xlink:href="#mb2d37224fb" x="410.794687" y="198.629435" style="stroke: #000000; stroke-width: 0.6"/>
      </g>
     </g>
    </g>
    <g id="xtick_20">
     <g id="line2d_29">
      <path d="M 458.224688 198.629435 
L 458.224688 45.103281 
" clip-path="url(#pcca6787718)" style="fill: none; stroke: #e1e0d9; stroke-width: 0.75; stroke-linecap: square"/>
     </g>
     <g id="line2d_30">
      <g>
       <use xlink:href="#mb2d37224fb" x="458.224688" y="198.629435" style="stroke: #000000; stroke-width: 0.6"/>
      </g>
     </g>
    </g>
    <g id="xtick_21">
     <g id="line2d_31">
      <path d="M 505.654687 198.629435 
L 505.654687 45.103281 
" clip-path="url(#pcca6787718)" style="fill: none; stroke: #e1e0d9; stroke-width: 0.75; stroke-linecap: square"/>
     </g>
     <g id="line2d_32">
      <g>
       <use xlink:href="#mb2d37224fb" x="505.654687" y="198.629435" style="stroke: #000000; stroke-width: 0.6"/>
      </g>
     </g>
    </g>
   </g>
   <g id="matplotlib.axis_2">
    <g id="ytick_1">
     <g id="line2d_33">
      <path d="M 31.354688 191.650974 
L 505.654688 191.650974 
" clip-path="url(#pcca6787718)" style="fill: none; stroke: #e1e0d9; stroke-width: 0.75; stroke-linecap: square"/>
     </g>
     <g id="line2d_34"/>
     <g id="text_11">
      <text style="font-size: 9px; font-family: 'Segoe UI', 'Helvetica Neue', 'Arial', 'DejaVu Sans', sans-serif; text-anchor: end; fill: #898781" x="25.354688" y="194.927097" transform="rotate(-0 25.354688 194.927097)">0</text>
     </g>
    </g>
    <g id="ytick_2">
     <g id="line2d_35">
      <path d="M 31.354688 159.749435 
L 505.654688 159.749435 
" clip-path="url(#pcca6787718)" style="fill: none; stroke: #e1e0d9; stroke-width: 0.75; stroke-linecap: square"/>
     </g>
     <g id="line2d_36"/>
     <g id="text_12">
      <text style="font-size: 9px; font-family: 'Segoe UI', 'Helvetica Neue', 'Arial', 'DejaVu Sans', sans-serif; text-anchor: end; fill: #898781" x="25.354688" y="163.025558" transform="rotate(-0 25.354688 163.025558)">80</text>
     </g>
    </g>
    <g id="ytick_3">
     <g id="line2d_37">
      <path d="M 31.354688 127.847897 
L 505.654688 127.847897 
" clip-path="url(#pcca6787718)" style="fill: none; stroke: #e1e0d9; stroke-width: 0.75; stroke-linecap: square"/>
     </g>
     <g id="line2d_38"/>
     <g id="text_13">
      <text style="font-size: 9px; font-family: 'Segoe UI', 'Helvetica Neue', 'Arial', 'DejaVu Sans', sans-serif; text-anchor: end; fill: #898781" x="25.354688" y="131.12402" transform="rotate(-0 25.354688 131.12402)">160</text>
     </g>
    </g>
    <g id="ytick_4">
     <g id="line2d_39">
      <path d="M 31.354688 95.946358 
L 505.654688 95.946358 
" clip-path="url(#pcca6787718)" style="fill: none; stroke: #e1e0d9; stroke-width: 0.75; stroke-linecap: square"/>
     </g>
     <g id="line2d_40"/>
     <g id="text_14">
      <text style="font-size: 9px; font-family: 'Segoe UI', 'Helvetica Neue', 'Arial', 'DejaVu Sans', sans-serif; text-anchor: end; fill: #898781" x="25.354688" y="99.222481" transform="rotate(-0 25.354688 99.222481)">240</text>
     </g>
    </g>
    <g id="ytick_5">
     <g id="line2d_41">
      <path d="M 31.354688 64.04482 
L 505.654688 64.04482 
" clip-path="url(#pcca6787718)" style="fill: none; stroke: #e1e0d9; stroke-width: 0.75; stroke-linecap: square"/>
     </g>
     <g id="line2d_42"/>
     <g id="text_15">
      <text style="font-size: 9px; font-family: 'Segoe UI', 'Helvetica Neue', 'Arial', 'DejaVu Sans', sans-serif; text-anchor: end; fill: #898781" x="25.354688" y="67.320943" transform="rotate(-0 25.354688 67.320943)">320</text>
     </g>
    </g>
   </g>
   <g id="line2d_43">
    <path d="M 31.354688 100.691712 
L 32.342812 111.797435 
L 32.836875 113.30877 
L 33.330937 105.520807 
L 33.825 109.891318 
L 34.319063 113.08546 
L 34.813125 115.087281 
L 35.307187 115.88482 
L 35.80125 116.97346 
L 36.295312 117.643392 
L 36.789375 119.314235 
L 37.283438 118.273447 
L 38.271562 123.202235 
L 38.765625 125.096389 
L 39.259687 125.375527 
L 39.75375 126.440241 
L 40.247812 127.070297 
L 40.741875 128.48194 
L 41.235938 129.004327 
L 41.73 127.568758 
L 42.224062 122.687823 
L 42.718125 119.872512 
L 43.212187 122.74365 
L 44.694375 107.76189 
L 45.188437 107.211589 
L 45.6825 100.691712 
L 46.176563 100.476377 
L 46.670625 100.691712 
L 47.164687 96.277337 
L 47.65875 99.475466 
L 48.152812 105.468967 
L 48.646875 114.305694 
L 49.140938 105.58461 
L 50.129062 126.763244 
L 50.623125 142.522604 
L 51.117187 143.407872 
L 51.61125 148.528069 
L 52.105313 159.127355 
L 52.599375 176.234555 
L 53.093437 176.27842 
L 53.5875 187.085066 
L 54.081562 189.30621 
L 54.575625 189.65314 
L 55.069688 189.30621 
L 55.56375 190.283195 
L 56.057812 190.283195 
L 57.54 191.05282 
L 58.034062 191.056807 
L 59.022187 191.220303 
L 62.480625 191.17245 
L 62.974687 190.853435 
L 64.456875 189.30621 
L 64.950937 186.85378 
L 65.445 176.27842 
L 65.939062 160.387466 
L 66.433125 154.964204 
L 66.927188 160.72642 
L 67.42125 147.862124 
L 67.915312 141.80482 
L 68.409375 121.63906 
L 68.903437 129.446961 
L 69.3975 111.897127 
L 69.891563 99.774543 
L 70.385625 98.893263 
L 70.879687 106.784906 
L 71.37375 100.911035 
L 72.361875 112.638838 
L 72.855938 116.227761 
L 73.35 116.821927 
L 73.844062 119.784783 
L 74.338125 124.40253 
L 74.832187 117.643392 
L 75.32625 121.467589 
L 75.820312 122.663897 
L 76.314375 129.036229 
L 76.808437 127.851884 
L 77.3025 132.270247 
L 77.796562 135.300894 
L 78.290625 136.062543 
L 78.784687 137.77725 
L 79.27875 138.706383 
L 80.760937 138.706383 
L 81.255 138.873866 
L 81.749063 138.706383 
L 82.243125 138.873866 
L 82.737187 138.706383 
L 83.725312 138.706383 
L 84.219375 137.77725 
L 84.713438 137.338604 
L 85.2075 137.338604 
L 85.701562 135.819294 
L 86.195625 135.819294 
L 86.689687 138.706383 
L 87.18375 138.315589 
L 87.677813 137.338604 
L 88.171875 134.228204 
L 88.665937 134.6509 
L 90.148125 125.961718 
L 90.642188 131.835589 
L 91.630312 120.857472 
L 92.618437 114.736364 
L 93.1125 109.105743 
L 93.606563 107.187663 
L 94.100625 109.077829 
L 94.594687 102.350592 
L 95.08875 108.515564 
L 95.582812 111.123515 
L 96.076875 117.121004 
L 96.570937 111.123515 
L 97.065 117.882654 
L 98.053125 126.886863 
L 98.547187 117.531737 
L 99.04125 121.666974 
L 99.535313 133.789558 
L 100.029375 138.981534 
L 100.523438 138.873866 
L 101.0175 139.810974 
L 101.511562 141.888561 
L 102.499688 150.414247 
L 102.99375 148.304758 
L 103.487812 148.304758 
L 104.475937 155.76573 
L 104.97 155.482604 
L 105.464063 155.761743 
L 105.958125 157.516327 
L 106.452187 156.001004 
L 107.440312 151.77405 
L 107.934375 150.976512 
L 108.428438 147.786358 
L 108.9225 147.786358 
L 109.416562 145.114604 
L 109.910625 143.798666 
L 110.404687 143.798666 
L 110.89875 139.810974 
L 111.392813 139.755146 
L 111.886875 138.873866 
L 112.380937 135.819294 
L 112.875 126.448217 
L 113.369062 121.678937 
L 113.863125 114.074407 
L 114.357187 119.174666 
L 114.85125 111.255109 
L 115.345313 99.694789 
L 115.839375 94.690235 
L 116.333437 109.891318 
L 116.8275 95.065078 
L 117.321562 87.970974 
L 117.815625 87.560241 
L 118.309688 89.96482 
L 118.80375 86.435712 
L 119.297812 83.724081 
L 119.791875 79.991601 
L 120.285938 52.081743 
L 120.78 52.081743 
L 121.274062 53.664857 
L 121.768125 72.020204 
L 122.262187 94.690235 
L 122.75625 95.71906 
L 123.744375 107.458826 
L 124.238437 95.758937 
L 124.7325 103.59874 
L 125.226562 108.78274 
L 126.214688 115.178998 
L 126.70875 115.178998 
L 127.202812 115.88482 
L 127.696875 117.228672 
L 128.190937 111.897127 
L 128.685 114.289743 
L 129.179063 115.178998 
L 129.673125 115.685435 
L 130.167187 117.228672 
L 130.66125 117.878666 
L 131.155312 119.074974 
L 131.649375 119.872512 
L 132.143437 117.228672 
L 132.6375 117.878666 
L 133.625625 118.54461 
L 134.119687 119.804721 
L 134.61375 120.004106 
L 135.107812 120.004106 
L 135.601875 120.594284 
L 136.095938 124.059589 
L 136.59 124.24701 
L 137.084062 122.84733 
L 137.578125 117.838789 
L 138.072188 120.004106 
L 138.56625 113.639749 
L 139.060312 112.275958 
L 139.554375 110.070764 
L 140.048437 111.199281 
L 140.5425 107.909435 
L 141.036563 103.59874 
L 141.530625 101.85213 
L 142.024687 101.927897 
L 142.51875 103.602727 
L 143.506875 115.178998 
L 144.000938 101.505201 
L 144.495 111.897127 
L 144.989062 119.174666 
L 145.483125 131.636204 
L 145.977187 124.07554 
L 146.47125 138.873866 
L 146.965313 143.794678 
L 147.459375 158.656807 
L 147.953437 151.77405 
L 148.941562 166.927281 
L 149.435625 168.721743 
L 149.929688 168.203343 
L 150.917812 175.692229 
L 151.411875 174.416167 
L 151.905937 174.180894 
L 152.894062 174.268623 
L 153.388125 176.031183 
L 153.882188 176.118912 
L 155.364375 176.031183 
L 155.858438 174.284574 
L 156.3525 174.125066 
L 156.846562 175.058186 
L 157.340625 171.712512 
L 157.834687 172.952684 
L 158.32875 168.721743 
L 158.822813 167.485558 
L 159.316875 160.578875 
L 159.810937 167.764697 
L 160.799062 153.767897 
L 161.293125 143.798666 
L 161.787188 143.798666 
L 162.28125 139.703306 
L 163.269375 117.531737 
L 163.763437 122.978924 
L 164.2575 115.178998 
L 164.751563 96.779786 
L 165.245625 91.93474 
L 165.739687 96.500647 
L 166.23375 88.640906 
L 166.727812 95.140844 
L 167.221875 99.930063 
L 167.715938 98.841423 
L 168.21 100.891097 
L 168.704062 103.518986 
L 169.198125 110.134567 
L 169.692187 104.611614 
L 171.174375 117.101066 
L 171.668438 116.654444 
L 172.1625 117.531737 
L 172.656562 119.936315 
L 173.150625 123.309903 
L 173.644688 117.834801 
L 174.13875 119.569447 
L 174.632812 123.333829 
L 175.126875 124.478297 
L 175.620937 124.258974 
L 176.609063 125.965706 
L 177.103125 127.269681 
L 177.597187 126.671527 
L 178.09125 127.449127 
L 178.585312 127.277657 
L 179.079375 127.261706 
L 179.573438 127.732254 
L 180.0675 128.043294 
L 180.561562 127.20189 
L 181.055625 127.369374 
L 181.549687 126.68349 
L 182.04375 126.603737 
L 182.537813 127.03042 
L 183.031875 125.21602 
L 183.525937 126.432266 
L 184.02 123.664807 
L 184.514062 117.942469 
L 185.008125 114.844032 
L 185.502188 113.67165 
L 185.99625 107.566494 
L 186.490312 103.917755 
L 186.984375 98.558297 
L 187.478437 108.710961 
L 187.9725 101.533115 
L 188.466562 91.958666 
L 188.960625 86.918223 
L 189.454688 84.067023 
L 189.94875 84.067023 
L 190.442812 89.645804 
L 190.936875 98.77762 
L 191.430937 95.818752 
L 191.925 111.897127 
L 192.913125 122.631995 
L 193.407187 117.691244 
L 194.395313 135.823281 
L 194.889375 140.038272 
L 195.383437 139.659441 
L 195.8775 143.718912 
L 197.85375 143.978112 
L 198.347812 144.39682 
L 198.841875 143.978112 
L 199.335937 143.978112 
L 199.83 144.556327 
L 200.324063 145.784537 
L 200.818125 145.792512 
L 201.312187 146.789435 
L 201.80625 145.792512 
L 202.794375 145.792512 
L 203.288438 144.556327 
L 203.7825 143.978112 
L 205.75875 143.718912 
L 206.252812 142.207577 
L 206.746875 139.479995 
L 207.240937 139.659441 
L 207.735 138.522949 
L 208.723125 125.43933 
L 209.217187 127.485017 
L 209.71125 114.844032 
L 210.205313 109.903281 
L 210.699375 93.473989 
L 211.193437 113.890974 
L 211.6875 102.538014 
L 212.181563 84.067023 
L 212.675625 83.736044 
L 213.169687 80.06338 
L 213.66375 80.06338 
L 214.157812 87.245214 
L 214.651875 92.724303 
L 215.145938 94.040241 
L 215.64 96.688069 
L 216.628125 107.143798 
L 217.122187 107.698087 
L 217.61625 109.105743 
L 218.110313 111.897127 
L 218.604375 113.934838 
L 219.098437 111.251121 
L 219.5925 112.886075 
L 220.086562 114.07042 
L 220.580625 117.838789 
M 363.364688 108.583355 
L 363.85875 108.982124 
L 365.340937 111.697743 
L 366.329063 111.773509 
L 367.317187 112.742518 
L 367.81125 113.663675 
L 368.305312 113.663675 
L 368.799375 114.840044 
L 369.293438 114.852007 
L 369.7875 115.69341 
L 370.281562 115.88482 
L 371.76375 115.964574 
L 372.257812 116.283589 
L 372.751875 115.964574 
L 373.245937 117.160881 
L 373.74 117.160881 
L 374.234062 115.88482 
L 374.728125 113.663675 
L 375.222187 113.663675 
L 375.71625 109.5085 
L 376.210313 107.909435 
L 376.704375 103.180032 
L 377.6925 99.93405 
L 378.186563 94.706186 
L 379.174687 91.244869 
L 379.66875 91.783207 
L 380.162812 94.080118 
L 380.656875 98.558297 
L 381.150938 94.706186 
L 382.633125 94.706186 
L 383.127187 110.87229 
L 383.62125 109.903281 
L 384.115313 110.329964 
L 384.609375 113.093435 
L 385.103437 111.897127 
L 386.091562 117.878666 
L 386.585625 123.066654 
L 387.079688 123.828303 
L 389.055937 123.927995 
L 389.55 124.478297 
L 390.044063 127.839921 
L 391.032187 131.43682 
L 392.020312 131.59234 
L 392.514375 130.284377 
L 393.008437 131.43682 
L 393.5025 124.916943 
L 393.996563 123.927995 
L 394.490625 123.927995 
L 394.984687 124.916943 
L 395.972813 123.927995 
L 396.466875 121.786604 
L 396.960938 123.927995 
L 397.455 118.676204 
L 397.949062 116.993398 
L 398.443125 115.88482 
L 398.937188 115.88482 
L 399.43125 113.093435 
L 399.925312 109.380894 
L 400.419375 101.36962 
L 401.4075 95.946358 
L 401.901563 87.970974 
L 402.395625 91.201004 
L 402.889687 87.970974 
L 403.877812 72.020204 
L 405.36 72.020204 
L 405.854062 83.724081 
L 406.348125 87.636007 
L 406.842187 98.598174 
L 407.33625 99.93405 
L 407.830313 100.109509 
L 408.818437 101.449374 
L 409.3125 105.915589 
L 409.806562 108.184586 
L 410.300625 109.380894 
L 410.794687 98.558297 
L 411.782813 103.124204 
L 412.276875 106.70914 
L 413.759062 107.905447 
L 414.253125 109.297152 
L 414.747188 110.298063 
L 415.24125 110.222297 
L 415.735312 110.381804 
L 416.229375 111.558174 
L 417.2175 112.287921 
L 417.711562 112.295897 
L 419.19375 113.890974 
L 420.181875 114.96765 
L 420.675937 115.12317 
L 421.664062 115.12317 
L 422.158125 112.455404 
L 422.652188 115.10722 
L 423.14625 113.683614 
L 423.640312 109.903281 
L 424.134375 107.566494 
L 424.628437 99.93405 
L 425.1225 96.847577 
L 425.616563 95.467835 
L 426.110625 95.005263 
L 426.604687 93.793004 
L 427.09875 93.59362 
L 427.592812 94.343306 
L 428.086875 101.93986 
L 428.580937 93.948524 
L 429.075 97.780697 
L 430.063125 112.906014 
L 430.557187 107.107909 
L 431.05125 114.026555 
L 431.545312 118.516697 
L 432.039375 121.786604 
L 432.533438 121.786604 
L 433.0275 128.80893 
L 433.521562 132.114727 
L 434.015625 133.099687 
L 434.509688 136.541066 
L 436.485937 136.852106 
L 436.98 137.817127 
L 437.474063 138.351478 
L 437.968125 139.810974 
L 438.462187 144.943134 
L 438.95625 147.786358 
L 439.450312 149.6845 
L 439.944375 149.6845 
L 440.438438 155.80162 
L 440.9325 157.699761 
L 441.920625 157.699761 
L 442.414687 159.43042 
L 442.90875 159.43042 
L 443.402813 153.839675 
L 443.896875 149.6845 
L 444.390937 139.810974 
L 444.885 137.593817 
L 445.379062 136.592906 
L 445.873125 132.999995 
L 446.367188 136.457324 
L 446.86125 121.686912 
L 447.355312 112.471355 
L 447.849375 107.909435 
L 448.343437 107.909435 
L 448.8375 99.507367 
L 449.331562 97.094814 
L 449.825625 99.93405 
L 450.319688 101.253977 
L 450.81375 105.317435 
L 451.307812 107.107909 
L 452.295938 107.909435 
L 452.79 109.899294 
L 453.284062 110.294075 
L 453.778125 111.418604 
L 454.272187 110.294075 
L 455.260313 112.471355 
L 456.248437 113.731466 
L 456.7425 116.542789 
L 457.236562 124.103454 
L 457.730625 128.80893 
L 458.224688 110.102666 
L 458.71875 111.578112 
L 459.212812 114.688512 
L 459.706875 115.88482 
L 460.200937 115.705374 
L 460.695 118.054124 
L 461.189063 121.866358 
L 461.683125 124.450383 
L 462.177187 126.25282 
L 462.67125 129.080094 
L 463.659375 130.595417 
L 464.6475 137.29474 
L 465.141562 137.817127 
L 465.635625 139.73122 
L 467.117812 139.93858 
L 467.611875 139.93858 
L 468.105938 140.169866 
L 469.094062 139.99042 
L 471.070312 139.78306 
L 471.564375 133.039872 
L 472.058437 132.234358 
L 473.046563 121.096734 
L 473.540625 118.02621 
L 474.034687 110.142543 
L 474.52875 110.70082 
L 475.022812 113.910912 
L 475.516875 119.984167 
L 476.010938 114.732377 
L 476.505 136.74045 
L 476.999062 143.571367 
L 477.493125 163.73314 
L 477.987187 168.645977 
L 478.48125 189.326149 
L 478.975313 191.216315 
L 479.469375 191.256192 
L 480.4575 191.646986 
L 490.832813 191.646986 
L 491.326875 191.48349 
L 491.820937 191.650974 
L 492.315 191.611097 
L 492.809062 191.252204 
L 493.303125 189.246395 
L 493.797188 189.657127 
L 494.785312 141.075072 
L 495.279375 129.458924 
L 495.773437 133.757657 
L 496.2675 122.604081 
L 496.761563 115.90077 
L 497.255625 112.858161 
L 497.749687 113.440364 
L 498.24375 110.381804 
L 498.737812 111.897127 
L 499.231875 113.779318 
L 499.725938 116.550764 
L 500.22 117.0253 
L 500.714062 116.650457 
L 501.208125 118.68418 
L 501.702187 119.314235 
L 502.19625 121.06882 
L 502.690312 120.674038 
L 503.184375 122.141509 
L 503.678437 122.970949 
L 504.1725 127.608635 
L 504.666562 129.080094 
L 505.160625 132.234358 
L 505.160625 132.234358 
" clip-path="url(#pcca6787718)" style="fill: none; stroke: #eb6834; stroke-width: 1.5; stroke-linecap: round"/>
   </g>
   <g id="patch_3">
    <path d="M 31.354688 198.629435 
L 505.654687 198.629435 
" style="fill: none; stroke: #c3c2b7; stroke-width: 0.75; stroke-linejoin: miter; stroke-linecap: square"/>
   </g>
   <g id="line2d_44">
    <path d="M 31.354688 114.022567 
L 32.836875 117.615478 
L 33.330937 119.497669 
L 33.825 119.756869 
L 34.319063 120.331097 
L 34.813125 120.414838 
L 35.307187 122.15746 
L 35.80125 123.19426 
L 36.295312 123.864192 
L 36.789375 123.947934 
L 37.283438 124.538112 
L 37.7775 124.5421 
L 38.271562 124.159281 
L 38.765625 124.570014 
L 39.259687 125.23197 
L 39.75375 125.136266 
L 40.247812 124.613878 
L 40.741875 123.792414 
L 41.235938 121.064832 
L 41.73 120.662075 
L 42.224062 119.728955 
L 42.718125 119.274358 
L 43.212187 118.333263 
L 44.200313 114.704463 
L 44.694375 112.228106 
L 46.670625 109.261263 
L 47.164687 109.568315 
L 47.65875 110.142543 
L 48.152812 112.156327 
L 48.646875 117.400143 
L 49.140938 129.048192 
L 49.635 131.791724 
L 50.129062 136.345669 
L 50.623125 142.85757 
L 51.117187 150.932647 
L 51.61125 152.408094 
L 52.105313 154.768807 
L 52.599375 158.672758 
L 53.093437 139.093189 
L 53.5875 148.85506 
L 54.081562 156.240266 
L 54.575625 166.907343 
L 55.069688 153.53661 
L 56.057812 164.809817 
L 56.551875 167.593226 
L 57.045937 162.054321 
L 57.54 165.076992 
L 58.034062 165.623306 
L 58.528125 166.91133 
L 59.022187 167.294149 
L 59.51625 167.266235 
L 60.010312 167.58525 
L 60.504375 168.358863 
L 60.998437 175.460943 
L 61.4925 175.668303 
L 61.986563 177.299269 
L 62.480625 174.858801 
L 62.974687 173.68642 
L 63.46875 169.495355 
L 63.962813 167.549361 
L 64.456875 166.245386 
L 64.950937 162.891737 
L 65.445 162.114137 
L 65.939062 158.297915 
L 66.433125 157.117558 
L 67.42125 144.420746 
L 67.915312 137.67357 
L 68.409375 135.966838 
L 68.903437 123.97186 
L 69.3975 118.153817 
L 69.891563 114.393423 
L 70.385625 113.508155 
L 70.879687 109.065866 
L 71.37375 108.862494 
L 71.867812 109.572303 
L 72.361875 108.659121 
L 73.35 99.559207 
L 73.844062 103.423281 
L 74.338125 106.134912 
L 74.832187 110.593152 
L 75.820312 111.362777 
L 76.314375 113.695577 
L 76.808437 118.097989 
L 77.796562 121.611146 
L 78.290625 125.822149 
L 78.784687 117.587564 
L 79.27875 119.238469 
L 79.772813 121.300106 
L 80.266875 122.404697 
L 80.760937 121.487527 
L 81.255 122.400709 
L 81.749063 125.303749 
L 82.243125 125.778284 
L 82.737187 123.389657 
L 83.23125 124.38658 
L 84.219375 125.116327 
L 84.713438 125.427367 
L 85.2075 125.965706 
L 85.701562 129.203712 
L 86.195625 130.092967 
L 86.689687 126.448217 
L 87.18375 127.177964 
L 88.171875 126.854961 
L 88.665937 121.674949 
L 89.16 121.651023 
L 89.654062 120.901337 
L 90.148125 119.485706 
L 91.13625 115.737275 
L 91.630312 115.250777 
L 92.124375 113.057546 
L 93.1125 107.765878 
L 93.606563 107.414961 
L 94.100625 107.235515 
L 94.594687 102.968684 
L 95.08875 103.993521 
L 95.582812 106.043195 
L 96.076875 111.693755 
L 96.570937 109.955121 
L 97.065 113.025644 
L 97.559063 118.516697 
L 98.053125 125.826137 
L 98.547187 129.01629 
L 99.04125 134.28802 
L 99.535313 135.627884 
L 100.029375 140.748081 
L 100.523438 122.667884 
L 102.005625 137.482161 
L 102.499688 138.168044 
L 103.487812 143.994063 
L 103.981875 149.63266 
L 104.475937 147.499244 
L 104.97 154.71298 
L 105.464063 155.390887 
L 106.452187 161.288684 
L 106.94625 167.541386 
L 107.440312 167.788623 
L 107.934375 168.358863 
L 108.428438 170.580007 
L 108.9225 171.166198 
L 109.416562 171.365583 
L 109.910625 171.090432 
L 110.404687 154.354087 
L 110.89875 150.717312 
L 111.886875 145.688832 
L 112.380937 130.36413 
L 112.875 128.095134 
L 113.369062 128.645435 
L 113.863125 123.748549 
L 114.357187 126.228894 
L 114.85125 126.763244 
L 115.345313 119.792758 
L 115.839375 109.173534 
L 116.333437 112.523195 
L 116.8275 105.855774 
L 117.321562 102.773287 
L 117.815625 102.218998 
L 118.309688 102.557952 
L 118.80375 101.951823 
L 119.297812 103.136167 
L 119.791875 104.803023 
L 120.285938 103.195983 
L 120.78 100.875146 
L 121.274062 99.878223 
L 121.768125 101.481275 
L 122.262187 97.984069 
L 122.75625 98.889275 
L 123.250313 100.304906 
L 123.744375 104.212844 
L 124.238437 105.72418 
L 125.226562 111.73762 
L 125.720625 112.854174 
L 126.214688 99.834358 
L 126.70875 100.9549 
L 127.696875 106.613435 
L 128.190937 110.373829 
L 129.179063 113.268894 
L 129.673125 113.946801 
L 130.167187 111.007872 
L 130.66125 112.20418 
L 131.155312 112.283934 
L 132.143437 113.675638 
L 132.6375 114.983601 
L 133.131562 115.063355 
L 133.625625 115.79709 
L 134.119687 113.229017 
L 134.61375 113.276869 
L 135.107812 113.037607 
L 135.601875 112.594974 
L 136.095938 113.368586 
L 136.59 113.089447 
L 137.084062 111.334863 
L 137.578125 110.660943 
L 138.072188 113.276869 
L 139.554375 108.519552 
L 140.048437 108.918321 
L 140.5425 107.801767 
L 141.530625 106.597484 
L 142.024687 102.936783 
L 142.51875 103.51101 
L 143.012812 105.955466 
L 143.506875 109.863404 
L 144.000938 125.443318 
L 144.989062 132.597238 
L 145.483125 139.691343 
L 145.977187 141.418014 
L 146.47125 144.935158 
L 146.965313 150.968537 
L 147.459375 154.689054 
L 147.953437 136.162235 
L 148.4475 141.896537 
L 149.435625 165.057054 
L 149.929688 152.671281 
L 150.42375 156.69885 
L 150.917812 159.518149 
L 151.411875 165.986186 
L 151.905937 158.13442 
L 152.4 160.77826 
L 152.894062 161.320586 
L 153.882188 167.716844 
L 154.37625 170.404549 
L 154.870312 170.28093 
L 155.364375 170.57602 
L 155.858438 174.495921 
L 156.3525 175.644377 
L 156.846562 175.588549 
L 157.340625 175.082112 
L 157.834687 170.711601 
L 158.32875 167.549361 
L 158.822813 167.054887 
L 159.316875 164.945398 
L 159.810937 168.047823 
L 160.305 164.742026 
L 161.293125 160.41538 
L 162.28125 149.28573 
L 162.775312 142.024143 
L 163.269375 136.94781 
L 164.2575 113.683614 
L 164.751563 109.668007 
L 165.245625 107.59042 
L 165.739687 109.779663 
L 166.23375 109.14562 
L 166.727812 107.446863 
L 167.221875 106.980303 
L 167.715938 106.67325 
L 168.21 99.950001 
L 168.704062 99.092647 
L 169.198125 104.129103 
L 169.692187 106.234604 
L 170.18625 107.817718 
L 171.174375 116.586654 
L 171.668438 118.205657 
L 172.1625 122.504389 
L 173.150625 126.743306 
L 173.644688 118.708106 
L 174.13875 119.537546 
L 174.632812 121.009004 
L 175.126875 122.06973 
L 175.620937 122.085681 
L 176.115 123.186284 
L 176.609063 124.601915 
L 177.103125 124.95682 
L 177.597187 121.399798 
L 178.09125 122.671872 
L 178.585312 123.238124 
L 179.079375 123.293952 
L 179.573438 123.684746 
L 180.0675 124.81725 
L 180.561562 124.897004 
L 181.055625 125.363564 
L 181.549687 124.813263 
L 183.031875 125.275835 
L 183.525937 118.991232 
L 184.02 118.89154 
L 184.514062 118.197681 
L 185.008125 116.957509 
L 185.502188 117.376217 
L 186.490312 114.409374 
L 186.984375 111.709706 
L 187.478437 110.325977 
L 187.9725 107.586432 
L 188.466562 106.19074 
L 188.960625 105.768044 
L 189.454688 104.523884 
L 189.94875 104.101189 
L 190.442812 106.988278 
L 190.936875 113.452327 
L 191.430937 112.551109 
L 192.419063 118.23357 
L 192.913125 125.810186 
L 193.407187 131.652155 
L 193.90125 140.50882 
L 194.395313 143.599281 
L 194.889375 151.574666 
L 195.383437 124.629829 
L 195.8775 133.350912 
L 196.371562 136.174198 
L 196.865625 149.07837 
L 197.359688 135.639847 
L 197.85375 135.735552 
L 198.347812 138.826014 
L 198.841875 144.520438 
L 199.335937 138.152094 
L 199.83 140.365263 
L 200.324063 141.581509 
L 200.818125 144.165534 
L 201.312187 144.640069 
L 201.80625 147.913964 
L 202.300312 149.034506 
L 202.794375 148.97469 
L 203.288438 159.179195 
L 203.7825 159.669681 
L 204.276562 158.632881 
L 204.770625 160.367527 
L 205.264687 147.909977 
L 205.75875 147.957829 
L 206.252812 145.832389 
L 206.746875 148.918863 
L 207.240937 137.81314 
L 207.735 138.459146 
L 208.229062 135.747515 
L 208.723125 134.539244 
L 209.217187 129.319355 
L 209.71125 127.166001 
L 210.205313 116.889718 
L 210.699375 110.553275 
L 211.193437 117.8029 
L 212.181563 110.453583 
L 212.675625 108.080906 
L 213.169687 106.860672 
L 213.66375 105.070198 
L 214.157812 106.422026 
L 214.651875 108.168635 
L 215.145938 105.433078 
L 215.64 105.616512 
L 216.134062 106.477854 
L 216.628125 108.786727 
L 217.122187 106.601472 
L 217.61625 108.639183 
L 218.110313 109.739786 
L 219.5925 115.864881 
L 220.086562 117.017324 
L 220.580625 119.545521 
M 363.364688 101.788327 
L 363.85875 105.225718 
L 364.352812 105.472955 
L 364.846875 108.974149 
L 365.340937 103.435244 
L 365.835 105.855774 
L 366.329063 109.113718 
L 366.823125 108.870469 
L 367.317187 109.795614 
L 367.81125 110.357878 
L 368.305312 109.464635 
L 368.799375 111.071675 
L 369.293438 109.803589 
L 369.7875 109.911257 
L 370.281562 110.461558 
L 370.775625 110.521374 
L 371.269687 111.885164 
L 371.76375 111.01186 
L 372.257812 111.89314 
L 372.751875 111.761546 
L 373.245937 112.51522 
L 373.74 108.479675 
L 374.234062 110.90818 
L 374.728125 109.201447 
L 375.222187 106.366198 
L 375.71625 106.665275 
L 376.210313 105.05026 
L 376.704375 102.569915 
L 377.198437 104.607626 
L 377.6925 102.258875 
L 378.186563 101.792315 
L 378.680625 92.796081 
L 379.174687 88.78845 
L 379.66875 92.257743 
L 380.162812 94.486863 
L 380.656875 103.399355 
L 381.150938 101.64477 
L 381.645 108.455749 
L 382.139062 110.736709 
L 382.633125 110.102666 
L 383.127187 103.554875 
L 383.62125 114.620721 
L 384.115313 109.181509 
L 385.103437 121.65501 
L 385.5975 114.481152 
L 386.585625 123.00285 
L 387.079688 121.463601 
L 387.57375 132.48957 
L 388.067812 129.973337 
L 388.561875 131.464734 
L 389.055937 124.932894 
L 389.55 134.272069 
L 390.044063 130.667195 
L 390.538125 131.209521 
L 391.032187 129.546654 
L 391.52625 131.285287 
L 392.020312 129.869657 
L 392.514375 135.257029 
L 393.008437 133.45858 
L 393.5025 127.086247 
L 393.996563 130.942346 
L 394.490625 125.495158 
L 394.984687 127.819983 
L 395.47875 126.6157 
L 395.972813 124.243023 
L 396.466875 119.78877 
L 396.960938 120.578334 
L 397.455 117.914555 
L 397.949062 112.834235 
L 398.443125 114.002629 
L 398.937188 111.570137 
L 399.43125 112.543134 
L 399.925312 102.765312 
L 400.419375 90.531072 
L 400.913437 105.468967 
L 401.4075 89.781386 
L 401.901563 85.514555 
L 402.395625 86.032955 
L 402.889687 99.323934 
L 403.38375 98.630075 
L 403.877812 99.240192 
L 404.371875 100.922998 
L 404.865938 95.758937 
L 405.36 88.194284 
L 405.854062 88.999798 
L 406.348125 92.516943 
L 406.842187 93.262641 
L 407.33625 97.545423 
L 407.830313 100.448463 
L 408.324375 100.771466 
L 408.818437 104.161004 
L 409.3125 101.353669 
L 410.300625 103.957632 
L 410.794687 104.212844 
L 411.28875 104.966518 
L 411.782813 105.225718 
L 412.276875 106.218654 
L 412.770937 105.795958 
L 413.265 107.327232 
L 413.759062 108.391946 
L 414.253125 108.770777 
L 414.747188 109.325066 
L 415.24125 109.556352 
L 415.735312 109.600217 
L 416.229375 109.911257 
L 416.723438 110.565238 
L 417.2175 110.720758 
L 417.711562 110.676894 
L 418.205625 110.864315 
L 418.699687 111.330875 
L 419.19375 111.450506 
L 419.687813 111.410629 
L 420.675937 109.763712 
L 421.17 109.644081 
L 421.664062 109.14562 
L 422.652188 106.980303 
L 423.640312 103.786161 
L 424.134375 102.40642 
L 424.628437 102.701509 
L 425.616563 97.641127 
L 426.110625 96.608315 
L 426.604687 94.271527 
L 427.09875 94.427047 
L 427.592812 95.7709 
L 428.086875 101.4733 
L 428.580937 97.250334 
L 429.075 100.922998 
L 429.569062 101.692623 
L 430.063125 103.714383 
L 430.557187 122.436598 
L 431.545312 129.064143 
L 432.039375 132.684967 
L 432.533438 116.534814 
L 433.0275 119.27037 
L 433.521562 126.990543 
L 434.015625 138.726321 
L 434.509688 129.143897 
L 435.00375 133.737718 
L 435.497812 139.687355 
L 435.991875 144.081792 
L 436.485937 141.605435 
L 438.462187 155.171564 
L 438.95625 155.845484 
L 439.944375 155.291195 
L 440.438438 160.582863 
L 440.9325 159.071527 
L 441.920625 157.831355 
L 442.90875 152.22466 
L 443.402813 151.522826 
L 443.896875 149.33757 
L 444.885 140.293484 
L 445.379062 137.490137 
L 445.873125 131.237435 
L 446.367188 120.502567 
L 447.849375 109.78365 
L 448.343437 110.788549 
L 449.331562 99.31197 
L 449.825625 99.491417 
L 451.307812 94.94146 
L 451.801875 89.266974 
L 452.295938 95.603417 
L 452.79 89.406543 
L 453.284062 89.91298 
L 454.272187 101.561029 
L 454.76625 100.448463 
L 455.260313 101.545078 
L 455.754375 103.49506 
L 456.248437 108.914334 
L 456.7425 111.27106 
L 457.236562 112.575035 
L 457.730625 116.307515 
L 458.224688 114.373484 
L 459.212812 116.78205 
L 460.200937 122.867269 
L 460.695 123.405607 
L 461.189063 125.973681 
L 461.683125 127.177964 
L 462.177187 137.322654 
L 463.165312 137.741361 
L 463.659375 138.084303 
L 464.153438 133.023921 
L 464.6475 133.386801 
L 465.635625 133.626063 
L 466.129687 134.993841 
L 466.62375 135.284943 
L 467.117812 136.198124 
L 467.611875 136.134321 
L 468.105938 137.701484 
L 468.6 137.681546 
L 469.094062 137.537989 
L 469.588125 137.079404 
L 470.082188 123.92002 
L 470.57625 122.990887 
L 471.070312 121.714826 
L 471.564375 119.298284 
L 472.5525 109.92322 
L 473.046563 108.830592 
L 473.540625 108.57538 
L 474.034687 120.713915 
L 474.52875 119.37405 
L 475.022812 118.716081 
L 475.516875 122.843343 
L 476.010938 138.060377 
L 476.505 141.242555 
L 476.999062 143.627195 
L 477.493125 149.429287 
L 479.469375 164.825767 
L 479.963437 137.888906 
L 480.951562 152.74306 
L 481.445625 169.411614 
L 481.939688 166.524524 
L 482.43375 169.17634 
L 482.927812 174.77506 
L 483.421875 173.363417 
L 483.915937 168.514383 
L 484.41 171.497177 
L 484.904062 171.684598 
L 485.398125 172.143183 
L 485.892188 172.218949 
L 486.38625 175.771983 
L 486.880312 178.483614 
L 487.374375 178.551404 
L 487.868437 177.957238 
L 488.3625 178.128709 
L 488.856563 178.475638 
L 489.350625 178.479626 
L 489.844687 177.430863 
L 490.33875 177.88546 
L 490.832813 177.650186 
L 491.326875 176.298358 
L 491.820937 168.757632 
L 492.809062 167.3101 
L 493.303125 165.930358 
L 493.797188 145.321964 
L 494.785312 129.243589 
L 495.279375 123.31389 
L 496.2675 115.079306 
L 496.761563 106.944414 
L 497.255625 108.619244 
L 497.749687 109.636106 
L 498.24375 108.220475 
L 498.737812 105.700254 
L 499.231875 105.397189 
L 499.725938 112.363687 
L 500.22 110.258186 
L 500.714062 106.96834 
L 501.208125 109.193472 
L 501.702187 110.50941 
L 502.19625 108.978137 
L 502.690312 113.1373 
L 503.184375 114.078395 
L 503.678437 119.760857 
L 504.1725 121.415749 
L 505.160625 129.853706 
L 505.160625 129.853706 
" clip-path="url(#pcca6787718)" style="fill: none; stroke: #2a78d6; stroke-width: 1.5; stroke-linecap: round"/>
   </g>
   <g id="text_16">
    <text style="font-weight: 600; font-size: 11px; font-family: 'Segoe UI', 'Helvetica Neue', 'Arial', 'DejaVu Sans', sans-serif; text-anchor: start; fill: #0b0b0b" x="31.354688" y="19.103281" transform="rotate(-0 31.354688 19.103281)">Cuarto a cuarto, últimos 7 días (EUR/MWh)</text>
   </g>
   <g id="legend_1">
    <g id="line2d_45">
     <path d="M 33.154688 38.083281 
L 40.354688 38.083281 
L 47.554688 38.083281 
" style="fill: none; stroke: #2a78d6; stroke-width: 1.5; stroke-linecap: round"/>
    </g>
    <g id="text_17">
     <text style="font-size: 9px; font-family: 'Segoe UI', 'Helvetica Neue', 'Arial', 'DejaVu Sans', sans-serif; text-anchor: start; fill: #52514e" x="54.754688" y="41.233281" transform="rotate(-0 54.754688 41.233281)">Previsión publicada</text>
    </g>
    <g id="line2d_46">
     <path d="M 144.203438 38.083281 
L 151.403437 38.083281 
L 158.603438 38.083281 
" style="fill: none; stroke: #eb6834; stroke-width: 1.5; stroke-linecap: round"/>
    </g>
    <g id="text_18">
     <text style="font-size: 9px; font-family: 'Segoe UI', 'Helvetica Neue', 'Arial', 'DejaVu Sans', sans-serif; text-anchor: start; fill: #52514e" x="165.803438" y="41.233281" transform="rotate(-0 165.803438 41.233281)">Real (OMIE)</text>
    </g>
   </g>
  </g>
  <g id="axes_2">
   <g id="patch_4">
    <path d="M 31.354688 377.743281 
L 505.654688 377.743281 
L 505.654688 275.392512 
L 31.354688 275.392512 
z
" style="fill: #ffffff"/>
   </g>
   <g id="matplotlib.axis_3">
    <g id="xtick_22">
     <g id="line2d_47"/>
     <g id="text_19">
      <text style="font-size: 9px; font-family: 'Segoe UI', 'Helvetica Neue', 'Arial', 'DejaVu Sans', sans-serif; text-anchor: middle; fill: #898781" x="43.114192" y="390.295527" transform="rotate(-0 43.114192 390.295527)">0:00</text>
     </g>
    </g>
    <g id="xtick_23">
     <g id="line2d_48"/>
     <g id="text_20">
      <text style="font-size: 9px; font-family: 'Segoe UI', 'Helvetica Neue', 'Arial', 'DejaVu Sans', sans-serif; text-anchor: middle; fill: #898781" x="101.911712" y="390.295527" transform="rotate(-0 101.911712 390.295527)">3:00</text>
     </g>
    </g>
    <g id="xtick_24">
     <g id="line2d_49"/>
     <g id="text_21">
      <text style="font-size: 9px; font-family: 'Segoe UI', 'Helvetica Neue', 'Arial', 'DejaVu Sans', sans-serif; text-anchor: middle; fill: #898781" x="160.709233" y="390.295527" transform="rotate(-0 160.709233 390.295527)">6:00</text>
     </g>
    </g>
    <g id="xtick_25">
     <g id="line2d_50"/>
     <g id="text_22">
      <text style="font-size: 9px; font-family: 'Segoe UI', 'Helvetica Neue', 'Arial', 'DejaVu Sans', sans-serif; text-anchor: middle; fill: #898781" x="219.506754" y="390.295527" transform="rotate(-0 219.506754 390.295527)">9:00</text>
     </g>
    </g>
    <g id="xtick_26">
     <g id="line2d_51"/>
     <g id="text_23">
      <text style="font-size: 9px; font-family: 'Segoe UI', 'Helvetica Neue', 'Arial', 'DejaVu Sans', sans-serif; text-anchor: middle; fill: #898781" x="278.304274" y="390.295527" transform="rotate(-0 278.304274 390.295527)">12:00</text>
     </g>
    </g>
    <g id="xtick_27">
     <g id="line2d_52"/>
     <g id="text_24">
      <text style="font-size: 9px; font-family: 'Segoe UI', 'Helvetica Neue', 'Arial', 'DejaVu Sans', sans-serif; text-anchor: middle; fill: #898781" x="337.101795" y="390.295527" transform="rotate(-0 337.101795 390.295527)">15:00</text>
     </g>
    </g>
    <g id="xtick_28">
     <g id="line2d_53"/>
     <g id="text_25">
      <text style="font-size: 9px; font-family: 'Segoe UI', 'Helvetica Neue', 'Arial', 'DejaVu Sans', sans-serif; text-anchor: middle; fill: #898781" x="395.899316" y="390.295527" transform="rotate(-0 395.899316 390.295527)">18:00</text>
     </g>
    </g>
    <g id="xtick_29">
     <g id="line2d_54"/>
     <g id="text_26">
      <text style="font-size: 9px; font-family: 'Segoe UI', 'Helvetica Neue', 'Arial', 'DejaVu Sans', sans-serif; text-anchor: middle; fill: #898781" x="454.696836" y="390.295527" transform="rotate(-0 454.696836 390.295527)">21:00</text>
     </g>
    </g>
   </g>
   <g id="matplotlib.axis_4">
    <g id="ytick_6">
     <g id="line2d_55">
      <path d="M 31.354688 377.743281 
L 505.654688 377.743281 
" clip-path="url(#p030fc7ff83)" style="fill: none; stroke: #e1e0d9; stroke-width: 0.75; stroke-linecap: square"/>
     </g>
     <g id="line2d_56"/>
     <g id="text_27">
      <text style="font-size: 9px; font-family: 'Segoe UI', 'Helvetica Neue', 'Arial', 'DejaVu Sans', sans-serif; text-anchor: end; fill: #898781" x="25.354688" y="381.019404" transform="rotate(-0 25.354688 381.019404)">0</text>
     </g>
    </g>
    <g id="ytick_7">
     <g id="line2d_57">
      <path d="M 31.354688 352.417798 
L 505.654688 352.417798 
" clip-path="url(#p030fc7ff83)" style="fill: none; stroke: #e1e0d9; stroke-width: 0.75; stroke-linecap: square"/>
     </g>
     <g id="line2d_58"/>
     <g id="text_28">
      <text style="font-size: 9px; font-family: 'Segoe UI', 'Helvetica Neue', 'Arial', 'DejaVu Sans', sans-serif; text-anchor: end; fill: #898781" x="25.354688" y="355.693921" transform="rotate(-0 25.354688 355.693921)">10</text>
     </g>
    </g>
    <g id="ytick_8">
     <g id="line2d_59">
      <path d="M 31.354688 327.092314 
L 505.654688 327.092314 
" clip-path="url(#p030fc7ff83)" style="fill: none; stroke: #e1e0d9; stroke-width: 0.75; stroke-linecap: square"/>
     </g>
     <g id="line2d_60"/>
     <g id="text_29">
      <text style="font-size: 9px; font-family: 'Segoe UI', 'Helvetica Neue', 'Arial', 'DejaVu Sans', sans-serif; text-anchor: end; fill: #898781" x="25.354688" y="330.368437" transform="rotate(-0 25.354688 330.368437)">20</text>
     </g>
    </g>
    <g id="ytick_9">
     <g id="line2d_61">
      <path d="M 31.354688 301.76683 
L 505.654688 301.76683 
" clip-path="url(#p030fc7ff83)" style="fill: none; stroke: #e1e0d9; stroke-width: 0.75; stroke-linecap: square"/>
     </g>
     <g id="line2d_62"/>
     <g id="text_30">
      <text style="font-size: 9px; font-family: 'Segoe UI', 'Helvetica Neue', 'Arial', 'DejaVu Sans', sans-serif; text-anchor: end; fill: #898781" x="25.354688" y="305.042953" transform="rotate(-0 25.354688 305.042953)">30</text>
     </g>
    </g>
    <g id="ytick_10">
     <g id="line2d_63">
      <path d="M 31.354688 276.441347 
L 505.654688 276.441347 
" clip-path="url(#p030fc7ff83)" style="fill: none; stroke: #e1e0d9; stroke-width: 0.75; stroke-linecap: square"/>
     </g>
     <g id="line2d_64"/>
     <g id="text_31">
      <text style="font-size: 9px; font-family: 'Segoe UI', 'Helvetica Neue', 'Arial', 'DejaVu Sans', sans-serif; text-anchor: end; fill: #898781" x="25.354688" y="279.71747" transform="rotate(-0 25.354688 279.71747)">40</text>
     </g>
    </g>
   </g>
   <g id="patch_5">
    <path d="M 37.23444 377.743281 
L 48.993944 377.743281 
L 48.993944 344.74763 
L 37.23444 344.74763 
z
" clip-path="url(#p030fc7ff83)" style="fill: #2a78d6"/>
   </g>
   <g id="patch_6">
    <path d="M 56.833613 377.743281 
L 68.593117 377.743281 
L 68.593117 354.896242 
L 56.833613 354.896242 
z
" clip-path="url(#p030fc7ff83)" style="fill: #2a78d6"/>
   </g>
   <g id="patch_7">
    <path d="M 76.432787 377.743281 
L 88.192291 377.743281 
L 88.192291 353.214399 
L 76.432787 353.214399 
z
" clip-path="url(#p030fc7ff83)" style="fill: #2a78d6"/>
   </g>
   <g id="patch_8">
    <path d="M 96.03196 377.743281 
L 107.791464 377.743281 
L 107.791464 353.790842 
L 96.03196 353.790842 
z
" clip-path="url(#p030fc7ff83)" style="fill: #2a78d6"/>
   </g>
   <g id="patch_9">
    <path d="M 115.631134 377.743281 
L 127.390638 377.743281 
L 127.390638 348.58185 
L 115.631134 348.58185 
z
" clip-path="url(#p030fc7ff83)" style="fill: #2a78d6"/>
   </g>
   <g id="patch_10">
    <path d="M 135.230307 377.743281 
L 146.989811 377.743281 
L 146.989811 344.300692 
L 135.230307 344.300692 
z
" clip-path="url(#p030fc7ff83)" style="fill: #2a78d6"/>
   </g>
   <g id="patch_11">
    <path d="M 154.829481 377.743281 
L 166.588985 377.743281 
L 166.588985 343.015712 
L 154.829481 343.015712 
z
" clip-path="url(#p030fc7ff83)" style="fill: #2a78d6"/>
   </g>
   <g id="patch_12">
    <path d="M 174.428654 377.743281 
L 186.188159 377.743281 
L 186.188159 344.26328 
L 174.428654 344.26328 
z
" clip-path="url(#p030fc7ff83)" style="fill: #2a78d6"/>
   </g>
   <g id="patch_13">
    <path d="M 194.027828 377.743281 
L 205.787332 377.743281 
L 205.787332 330.493987 
L 194.027828 330.493987 
z
" clip-path="url(#p030fc7ff83)" style="fill: #2a78d6"/>
   </g>
   <g id="patch_14">
    <path d="M 213.627002 377.743281 
L 225.386506 377.743281 
L 225.386506 301.957059 
L 213.627002 301.957059 
z
" clip-path="url(#p030fc7ff83)" style="fill: #2a78d6"/>
   </g>
   <g id="patch_15">
    <path d="M 233.226175 377.743281 
L 244.985679 377.743281 
L 244.985679 322.269824 
L 233.226175 322.269824 
z
" clip-path="url(#p030fc7ff83)" style="fill: #2a78d6"/>
   </g>
   <g id="patch_16">
    <path d="M 252.825349 377.743281 
L 264.584853 377.743281 
L 264.584853 280.266358 
L 252.825349 280.266358 
z
" clip-path="url(#p030fc7ff83)" style="fill: #2a78d6"/>
   </g>
   <g id="patch_17">
    <path d="M 272.424522 377.743281 
L 284.184026 377.743281 
L 284.184026 304.875821 
L 272.424522 304.875821 
z
" clip-path="url(#p030fc7ff83)" style="fill: #2a78d6"/>
   </g>
   <g id="patch_18">
    <path d="M 292.023696 377.743281 
L 303.7832 377.743281 
L 303.7832 323.452064 
L 292.023696 323.452064 
z
" clip-path="url(#p030fc7ff83)" style="fill: #2a78d6"/>
   </g>
   <g id="patch_19">
    <path d="M 311.622869 377.743281 
L 323.382373 377.743281 
L 323.382373 341.37934 
L 311.622869 341.37934 
z
" clip-path="url(#p030fc7ff83)" style="fill: #2a78d6"/>
   </g>
   <g id="patch_20">
    <path d="M 331.222043 377.743281 
L 342.981547 377.743281 
L 342.981547 343.401925 
L 331.222043 343.401925 
z
" clip-path="url(#p030fc7ff83)" style="fill: #2a78d6"/>
   </g>
   <g id="patch_21">
    <path d="M 350.821216 377.743281 
L 362.580721 377.743281 
L 362.580721 340.857578 
L 350.821216 340.857578 
z
" clip-path="url(#p030fc7ff83)" style="fill: #2a78d6"/>
   </g>
   <g id="patch_22">
    <path d="M 370.42039 377.743281 
L 382.179894 377.743281 
L 382.179894 323.079664 
L 370.42039 323.079664 
z
" clip-path="url(#p030fc7ff83)" style="fill: #2a78d6"/>
   </g>
   <g id="patch_23">
    <path d="M 390.019564 377.743281 
L 401.779068 377.743281 
L 401.779068 296.313793 
L 390.019564 296.313793 
z
" clip-path="url(#p030fc7ff83)" style="fill: #2a78d6"/>
   </g>
   <g id="patch_24">
    <path d="M 409.618737 377.743281 
L 421.378241 377.743281 
L 421.378241 300.433789 
L 409.618737 300.433789 
z
" clip-path="url(#p030fc7ff83)" style="fill: #2a78d6"/>
   </g>
   <g id="patch_25">
    <path d="M 429.217911 377.743281 
L 440.977415 377.743281 
L 440.977415 289.597072 
L 429.217911 289.597072 
z
" clip-path="url(#p030fc7ff83)" style="fill: #2a78d6"/>
   </g>
   <g id="patch_26">
    <path d="M 448.817084 377.743281 
L 460.576588 377.743281 
L 460.576588 313.144592 
L 448.817084 313.144592 
z
" clip-path="url(#p030fc7ff83)" style="fill: #2a78d6"/>
   </g>
   <g id="patch_27">
    <path d="M 468.416258 377.743281 
L 480.175762 377.743281 
L 480.175762 341.97305 
L 468.416258 341.97305 
z
" clip-path="url(#p030fc7ff83)" style="fill: #2a78d6"/>
   </g>
   <g id="patch_28">
    <path d="M 488.015431 377.743281 
L 499.774935 377.743281 
L 499.774935 343.226662 
L 488.015431 343.226662 
z
" clip-path="url(#p030fc7ff83)" style="fill: #2a78d6"/>
   </g>
   <g id="patch_29">
    <path d="M 31.354688 377.743281 
L 505.654688 377.743281 
" style="fill: none; stroke: #c3c2b7; stroke-width: 0.75; stroke-linejoin: miter; stroke-linecap: square"/>
   </g>
   <g id="text_32">
    <text style="font-weight: 600; font-size: 11px; font-family: 'Segoe UI', 'Helvetica Neue', 'Arial', 'DejaVu Sans', sans-serif; text-anchor: start; fill: #0b0b0b" x="31.354688" y="249.392512" transform="rotate(-0 31.354688 249.392512)">Error medio absoluto por hora del día, 22 días evaluados (EUR/MWh)</text>
   </g>
  </g>
 </g>
 <defs>
  <clipPath id="pcca6787718">
   <rect x="31.354688" y="45.103281" width="474.3" height="153.526154"/>
  </clipPath>
  <clipPath id="p030fc7ff83">
   <rect x="31.354688" y="275.392512" width="474.3" height="102.350769"/>
  </clipPath>
 </defs>
</svg>
