<?xml version="1.0" encoding="utf-8" standalone="no"?>
<!DOCTYPE svg PUBLIC "-//W3C//DTD SVG 1.1//EN"
  "http://www.w3.org/Graphics/SVG/1.1/DTD/svg11.dtd">
<svg xmlns:xlink="http://www.w3.org/1999/xlink" width="516.454688pt" height="402.98957pt" viewBox="0 0 516.454688 402.98957" xmlns="http://www.w3.org/2000/svg" version="1.1">
 <metadata>
  <rdf:RDF xmlns:dc="http://purl.org/dc/elements/1.1/" xmlns:cc="http://creativecommons.org/ns#" xmlns:rdf="http://www.w3.org/1999/02/22-rdf-syntax-ns#">
   <cc:Work>
    <dc:type rdf:resource="http://purl.org/dc/dcmitype/StillImage"/>
    <dc:format>image/svg+xml</dc:format>
    <dc:creator>
     <cc:Agent>
      <dc:title>Matplotlib v3.11.1, https://matplotlib.org/</dc:title>
     </cc:Agent>
    </dc:creator>
   </cc:Work>
  </rdf:RDF>
 </metadata>
 <defs>
  <style type="text/css">*{stroke-linejoin: round; stroke-linecap: butt}</style>
 </defs>
 <g id="figure_1">
  <g id="patch_1">
   <path d="M 0 402.98957 
L 516.454688 402.98957 
L 516.454688 0 
L 0 0 
z
" style="fill: #ffffff"/>
  </g>
  <g id="axes_1">
   <g id="patch_2">
    <path d="M 31.354688 198.629435 
L 505.654688 198.629435 
L 505.654688 45.103281 
L 31.354688 45.103281 
z
" style="fill: #ffffff"/>
   </g>
   <g id="matplotlib.axis_1">
    <g id="xtick_1">
     <g id="line2d_1"/>
     <g id="text_1">
      <text style="font-size: 9px; font-family: 'Segoe UI', 'Helvetica Neue', 'Arial', 'DejaVu Sans', sans-serif; text-anchor: middle; fill: #898781" x="60.998438" y="211.423029" transform="rotate(-0 60.998438 211.423029)">sáb 19</text>
     </g>
    </g>
    <g id="xtick_2">
     <g id="line2d_2"/>
     <g id="text_2">
      <text style="font-size: 9px; font-family: 'Segoe UI', 'Helvetica Neue', 'Arial', 'DejaVu Sans', sans-serif; text-anchor: middle; fill: #898781" x="120.285938" y="211.292248" transform="rotate(-0 120.285938 211.292248)">dom 20</text>
     </g>
    </g>
    <g id="xtick_3">
     <g id="line2d_3"/>
     <g id="text_3">
      <text style="font-size: 9px; font-family: 'Segoe UI', 'Helvetica Neue', 'Arial', 'DejaVu Sans', sans-serif; text-anchor: middle; fill: #898781" x="179.573438" y="211.292248" transform="rotate(-0 179.573438 211.292248)">lun 21</text>
     </g>
    </g>
    <g id="xtick_4">
     <g id="line2d_4"/>
     <g id="text_4">
      <text style="font-size: 9px; font-family: 'Segoe UI', 'Helvetica Neue', 'Arial', 'DejaVu Sans', sans-serif; text-anchor: middle; fill: #898781" x="238.860938" y="211.181681" transform="rotate(-0 238.860938 211.181681)">mar 22</text>
     </g>
    </g>
    <g id="xtick_5">
     <g id="line2d_5"/>
     <g id="text_5">
      <text style="font-size: 9px; font-family: 'Segoe UI', 'Helvetica Neue', 'Arial', 'DejaVu Sans', sans-serif; text-anchor: middle; fill: #898781" x="298.148438" y="211.423029" transform="rotate(-0 298.148438 211.423029)">mié 23</text>
     </g>
    </g>
    <g id="xtick_6">
     <g id="line2d_6"/>
     <g id="text_6">
      <text style="font-size: 9px; font-family: 'Segoe UI', 'Helvetica Neue', 'Arial', 'DejaVu Sans', sans-serif; text-anchor: middle; fill: #898781" x="357.435938" y="211.207873" transform="rotate(-0 357.435938 211.207873)">jue 24</text>
     </g>
    </g>
    <g id="xtick_7">
     <g id="line2d_7"/>
     <g id="text_7">
      <text style="font-size: 9px; font-family: 'Segoe UI', 'Helvetica Neue', 'Arial', 'DejaVu Sans', sans-serif; text-anchor: middle; fill: #898781" x="416.723438" y="211.207873" transform="rotate(-0 416.723438 211.207873)">vie 25</text>
     </g>
    </g>
    <g id="xtick_8">
     <g id="line2d_8"/>
     <g id="text_8">
      <text style="font-size: 9px; font-family: 'Segoe UI', 'Helvetica Neue', 'Arial', 'DejaVu Sans', sans-serif; text-anchor: middle; fill: #898781" x="476.010938" y="211.423029" transform="rotate(-0 476.010938 211.423029)">sáb 26</text>
     </g>
    </g>
    <g id="xtick_9">
     <g id="line2d_9">
      <path d="M 31.354688 198.629435 
L 31.354688 45.103281 
" clip-path="url(#pcca6787718)" style="fill: none; stroke: #e1e0d9; stroke-width: 0.75; stroke-linecap: square"/>
     </g>
     <g id="line2d_10">
      <defs>
       <path id="mb2d37224fb" d="M 0 0 
L 0 2 
" style="stroke: #000000; stroke-width: 0.6"/>
      </defs>
      <g>
       <use xlink:href="#mb2d37224fb" x="31.354688" y="198.629435" style="stroke: #000000; stroke-width: 0.6"/>
      </g>
     </g>
    </g>
    <g id="xtick_10">
     <g id="line2d_11">
      <path d="M 90.642188 198.629435 
L 90.642188 45.103281 
" clip-path="url(#pcca6787718)" style="fill: none; stroke: #e1e0d9; stroke-width: 0.75; stroke-linecap: square"/>
     </g>
     <g id="line2d_12">
      <g>
       <use xlink:href="#mb2d37224fb" x="90.642188" y="198.629435" style="stroke: #000000; stroke-width: 0.6"/>
      </g>
     </g>
    </g>
    <g id="xtick_11">
     <g id="line2d_13">
      <path d="M 149.929688 198.629435 
L 149.929688 45.103281 
" clip-path="url(#pcca6787718)" style="fill: none; stroke: #e1e0d9; stroke-width: 0.75; stroke-linecap: square"/>
     </g>
     <g id="line2d_14">
      <g>
       <use xlink:href="#mb2d37224fb" x="149.929688" y="198.629435" style="stroke: #000000; stroke-width: 0.6"/>
      </g>
     </g>
    </g>
    <g id="xtick_12">
     <g id="line2d_15">
      <path d="M 209.217188 198.629435 
L 209.217188 45.103281 
" clip-path="url(#pcca6787718)" style="fill: none; stroke: #e1e0d9; stroke-width: 0.75; stroke-linecap: square"/>
     </g>
     <g id="line2d_16">
      <g>
       <use xlink:href="#mb2d37224fb" x="209.217188" y="198.629435" style="stroke: #000000; stroke-width: 0.6"/>
      </g>
     </g>
    </g>
    <g id="xtick_13">
     <g id="line2d_17">
      <path d="M 268.504688 198.629435 
L 268.504688 45.103281 
" clip-path="url(#pcca6787718)" style="fill: none; stroke: #e1e0d9; stroke-width: 0.75; stroke-linecap: square"/>
     </g>
     <g id="line2d_18">
      <g>
       <use xlink:href="#mb2d37224fb" x="268.504688" y="198.629435" style="stroke: #000000; stroke-width: 0.6"/>
      </g>
     </g>
    </g>
    <g id="xtick_14">
     <g id="line2d_19">
      <path d="M 327.792188 198.629435 
L 327.792188 45.103281 
" clip-path="url(#pcca6787718)" style="fill: none; stroke: #e1e0d9; stroke-width: 0.75; stroke-linecap: square"/>
     </g>
     <g id="line2d_20">
      <g>
       <use xlink:href="#mb2d37224fb" x="327.792188" y="198.629435" style="stroke: #000000; stroke-width: 0.6"/>
      </g>
     </g>
    </g>
    <g id="xtick_15">
     <g id="line2d_21">
      <path d="M 387.079688 198.629435 
L 387.079688 45.103281 
" clip-path="url(#pcca6787718)" style="fill: none; stroke: #e1e0d9; stroke-width: 0.75; stroke-linecap: square"/>
     </g>
     <g id="line2d_22">
      <g>
       <use xlink:href="#mb2d37224fb" x="387.079688" y="198.629435" style="stroke: #000000; stroke-width: 0.6"/>
      </g>
     </g>
    </g>
    <g id="xtick_16">
     <g id="line2d_23">
      <path d="M 446.367188 198.629435 
L 446.367188 45.103281 
" clip-path="url(#pcca6787718)" style="fill: none; stroke: #e1e0d9; stroke-width: 0.75; stroke-linecap: square"/>
     </g>
     <g id="line2d_24">
      <g>
       <use xlink:href="#mb2d37224fb" x="446.367188" y="198.629435" style="stroke: #000000; stroke-width: 0.6"/>
      </g>
     </g>
    </g>
    <g id="xtick_17">
     <g id="line2d_25">
      <path d="M 505.654688 198.629435 
L 505.654688 45.103281 
" clip-path="url(#pcca6787718)" style="fill: none; stroke: #e1e0d9; stroke-width: 0.75; stroke-linecap: square"/>
     </g>
     <g id="line2d_26">
      <g>
       <use xlink:href="#mb2d37224fb" x="505.654688" y="198.629435" style="stroke: #000000; stroke-width: 0.6"/>
      </g>
     </g>
    </g>
   </g>
   <g id="matplotlib.axis_2">
    <g id="ytick_1">
     <g id="line2d_27">
      <path d="M 31.354688 191.39093 
L 505.654688 191.39093 
" clip-path="url(#pcca6787718)" style="fill: none; stroke: #e1e0d9; stroke-width: 0.75; stroke-linecap: square"/>
     </g>
     <g id="line2d_28"/>
     <g id="text_9">
      <text style="font-size: 9px; font-family: 'Segoe UI', 'Helvetica Neue', 'Arial', 'DejaVu Sans', sans-serif; text-anchor: end; fill: #898781" x="25.354688" y="194.667053" transform="rotate(-0 25.354688 194.667053)">0</text>
     </g>
    </g>
    <g id="ytick_2">
     <g id="line2d_29">
      <path d="M 31.354688 154.241813 
L 505.654688 154.241813 
" clip-path="url(#pcca6787718)" style="fill: none; stroke: #e1e0d9; stroke-width: 0.75; stroke-linecap: square"/>
     </g>
     <g id="line2d_30"/>
     <g id="text_10">
      <text style="font-size: 9px; font-family: 'Segoe UI', 'Helvetica Neue', 'Arial', 'DejaVu Sans', sans-serif; text-anchor: end; fill: #898781" x="25.354688" y="157.517936" transform="rotate(-0 25.354688 157.517936)">80</text>
     </g>
    </g>
    <g id="ytick_3">
     <g id="line2d_31">
      <path d="M 31.354688 117.092697 
L 505.654688 117.092697 
" clip-path="url(#pcca6787718)" style="fill: none; stroke: #e1e0d9; stroke-width: 0.75; stroke-linecap: square"/>
     </g>
     <g id="line2d_32"/>
     <g id="text_11">
      <text style="font-size: 9px; font-family: 'Segoe UI', 'Helvetica Neue', 'Arial', 'DejaVu Sans', sans-serif; text-anchor: end; fill: #898781" x="25.354688" y="120.36882" transform="rotate(-0 25.354688 120.36882)">160</text>
     </g>
    </g>
    <g id="ytick_4">
     <g id="line2d_33">
      <path d="M 31.354688 79.94358 
L 505.654688 79.94358 
" clip-path="url(#pcca6787718)" style="fill: none; stroke: #e1e0d9; stroke-width: 0.75; stroke-linecap: square"/>
     </g>
     <g id="line2d_34"/>
     <g id="text_12">
      <text style="font-size: 9px; font-family: 'Segoe UI', 'Helvetica Neue', 'Arial', 'DejaVu Sans', sans-serif; text-anchor: end; fill: #898781" x="25.354688" y="83.219703" transform="rotate(-0 25.354688 83.219703)">240</text>
     </g>
    </g>
   </g>
   <g id="line2d_35">
    <path d="M 31.354688 108.195483 
L 32.589844 108.195483 
L 33.207422 108.785226 
L 33.825 108.195483 
L 34.442578 109.291382 
L 35.060156 110.034365 
L 35.677734 112.351541 
L 36.295313 110.127237 
L 36.912891 111.803591 
L 37.530469 112.351541 
L 41.853516 112.351541 
L 42.471094 109.941492 
L 43.70625 109.941492 
L 44.323828 109.70931 
L 44.941406 108.738789 
L 45.558984 112.351541 
L 46.176563 108.195483 
L 46.794141 107.805418 
L 47.411719 107.758981 
L 48.029297 105.204979 
L 48.646875 105.000659 
L 49.882031 103.737589 
L 50.499609 103.514695 
L 51.117188 103.514695 
L 51.734766 104.471284 
L 52.352344 109.941492 
L 52.969922 133.735501 
L 53.5875 131.859471 
L 54.205078 147.090608 
L 54.822656 173.489699 
L 55.440234 190.889417 
L 56.057813 191.154104 
L 57.292969 191.39093 
L 73.967578 191.39093 
L 74.585156 191.154104 
L 75.202734 190.225376 
L 75.820312 184.420827 
L 76.437891 161.634487 
L 77.055469 147.508536 
L 77.673047 137.975144 
L 78.290625 137.989075 
L 78.908203 126.379976 
L 79.525781 109.068488 
L 80.143359 103.514695 
L 80.760938 102.892447 
L 81.378516 100.161987 
L 81.996094 97.98412 
L 83.848828 97.98412 
L 84.466406 100.143412 
L 85.083984 100.222354 
L 85.701562 101.536504 
L 86.319141 103.161778 
L 86.936719 103.737589 
L 87.554297 105.019234 
L 88.171875 103.737589 
L 89.407031 104.787052 
L 90.024609 105.836514 
M 149.929688 98.165222 
L 150.547266 103.161778 
L 151.164844 104.875281 
L 151.782422 104.903143 
L 153.017578 105.636838 
L 153.635156 105.683274 
L 154.252734 108.232632 
L 154.870313 106.152282 
L 155.487891 109.630368 
L 156.723047 109.70931 
L 157.340625 110.127237 
L 157.958203 110.127237 
L 158.575781 110.517303 
L 161.046094 110.456936 
L 161.663672 110.127237 
L 162.898828 110.127237 
L 163.516406 109.384255 
L 164.133984 105.636838 
L 164.751563 105.636838 
L 165.986719 103.161778 
L 167.221875 93.08508 
L 167.839453 87.373403 
L 169.074609 84.322532 
L 169.692187 68.845282 
L 170.927344 86.444676 
L 171.544922 100.839958 
L 172.1625 92.82968 
L 172.780078 104.903143 
L 173.397656 113.60068 
L 174.015234 139.953334 
L 174.632812 140.264458 
L 175.250391 148.855191 
L 177.103125 185.888217 
L 177.720703 190.002482 
L 178.338281 190.462202 
L 180.191016 190.694384 
L 181.426172 190.694384 
L 182.04375 190.545787 
L 183.278906 190.578293 
L 184.514063 190.685097 
L 185.749219 190.48542 
L 186.366797 190.531856 
L 186.984375 189.798161 
L 187.601953 189.798161 
L 188.219531 189.06911 
L 188.837109 188.66047 
L 189.454687 188.572241 
L 190.689844 180.241551 
L 191.307422 178.853103 
L 191.925 178.853103 
L 192.542578 168.172732 
L 193.160156 151.919993 
L 193.777734 146.347626 
L 194.395313 148.414046 
L 195.012891 139.382167 
L 196.248047 103.157134 
L 196.865625 103.161778 
L 197.483203 86.946189 
L 198.718359 62.975721 
L 199.335938 74.696267 
L 199.953516 75.169919 
L 200.571094 75.299941 
L 201.188672 74.696267 
L 201.80625 73.902205 
L 202.423828 75.299941 
L 203.041406 79.938937 
L 203.658984 92.82968 
L 204.276563 86.90904 
L 204.894141 92.82968 
L 205.511719 95.300096 
L 206.129297 98.518138 
L 206.746875 98.518138 
L 207.364453 104.002277 
L 207.982031 104.438779 
L 208.599609 105.636838 
L 209.217188 98.85248 
L 209.834766 98.85248 
L 210.452344 99.679048 
L 211.069922 99.288983 
L 211.6875 100.375594 
L 212.305078 100.723867 
L 212.922656 102.948171 
L 213.540234 103.626142 
L 214.157813 100.742442 
L 214.775391 100.839958 
L 215.392969 103.157134 
L 217.863281 103.161778 
L 218.480859 105.019234 
L 219.098437 103.161778 
L 220.951172 103.161778 
L 221.56875 105.297852 
L 222.186328 105.019234 
L 222.803906 101.77333 
L 223.421484 100.779591 
L 224.039062 98.85248 
L 224.656641 97.821593 
L 225.274219 97.542974 
L 225.891797 93.874499 
L 226.509375 86.444676 
L 227.126953 85.181606 
L 228.362109 77.756426 
L 228.979688 60.305628 
L 229.597266 66.913528 
L 230.214844 79.590664 
L 230.832422 96.205606 
L 231.45 91.552679 
L 232.067578 101.346115 
L 232.685156 117.092697 
L 233.302734 140.185516 
L 233.920312 140.180873 
L 234.537891 143.886497 
L 235.155469 150.457247 
L 235.773047 172.816371 
L 236.390625 167.244004 
L 237.008203 173.285379 
L 237.625781 173.438619 
L 238.243359 178.853103 
L 238.860938 180.241551 
L 239.478516 180.241551 
L 240.096094 181.950411 
L 240.713672 182.103651 
L 241.33125 186.738003 
L 243.801562 186.738003 
L 245.036719 182.024709 
L 245.654297 180.195115 
L 246.271875 179.781831 
L 246.889453 180.241551 
L 247.507031 181.109912 
L 248.124609 180.241551 
L 248.742188 176.299101 
L 249.359766 173.238943 
L 250.594922 158.885453 
L 251.2125 148.414046 
L 251.830078 142.632714 
L 253.065234 137.989075 
L 253.682813 140.180873 
L 254.300391 128.437108 
L 254.917969 100.199136 
L 255.535547 96.205606 
L 256.153125 98.85248 
L 256.770703 86.444676 
L 257.388281 60.639971 
L 258.005859 52.081743 
L 258.623438 59.047202 
L 259.241016 56.720739 
L 259.858594 62.214164 
L 260.476172 62.975721 
L 261.09375 64.847108 
L 261.711328 70.112995 
L 262.328906 70.112995 
L 262.946484 72.931684 
L 263.564062 73.902205 
L 264.181641 83.751365 
L 264.799219 83.570263 
L 265.416797 87.183014 
L 266.034375 87.373403 
L 266.651953 91.766287 
L 267.269531 93.776982 
L 267.887109 97.970189 
L 268.504688 95.648369 
L 269.122266 96.084871 
L 269.739844 96.892865 
L 270.975 96.892865 
L 271.592578 97.236494 
L 272.210156 97.970189 
L 272.827734 98.518138 
L 273.445312 98.703884 
L 274.062891 100.143412 
L 274.680469 100.668144 
L 275.298047 100.668144 
L 275.915625 98.541357 
L 276.533203 98.703884 
L 277.768359 98.703884 
L 278.385938 97.970189 
L 279.621094 97.970189 
L 280.238672 97.366516 
L 280.85625 99.121812 
L 281.473828 98.703884 
L 282.708984 97.366516 
L 283.326563 97.125047 
L 283.944141 96.140595 
L 284.561719 96.196319 
L 285.179297 93.869855 
L 285.796875 95.499773 
L 286.414453 89.286583 
L 287.032031 86.90904 
L 287.649609 86.026748 
L 288.267188 71.747556 
L 289.502344 87.229451 
L 290.119922 103.570418 
L 290.7375 95.211867 
L 291.355078 101.360046 
L 291.972656 112.068279 
L 292.590234 128.734301 
L 293.207812 122.897246 
L 293.825391 137.863696 
L 294.442969 140.296964 
L 295.060547 144.954534 
L 295.678125 144.94989 
L 296.295703 156.563633 
L 296.913281 149.598174 
L 297.530859 156.563633 
L 298.148438 172.816371 
L 298.766016 175.138191 
L 299.383594 175.138191 
L 300.001172 177.460011 
L 300.61875 180.241551 
L 301.236328 180.241551 
L 301.853906 186.23649 
L 302.471484 186.738003 
L 303.089063 180.241551 
L 303.706641 180.5341 
L 304.324219 179.5125 
L 304.941797 178.746299 
L 305.559375 179.452132 
L 306.176953 178.258717 
L 306.794531 175.565406 
L 307.412109 173.387539 
L 308.029687 173.387539 
L 308.647266 168.172732 
L 309.882422 154.241813 
L 312.352734 138.453439 
L 312.970313 140.296964 
L 313.587891 135.212178 
L 314.205469 105.483598 
L 314.823047 96.892865 
L 315.440625 100.839958 
L 316.675781 72.509113 
L 317.293359 63.988035 
L 317.910937 67.791175 
L 318.528516 67.40111 
L 319.146094 70.099064 
L 319.763672 70.112995 
L 320.38125 74.361925 
L 320.998828 75.481043 
L 321.616406 79.938937 
L 322.233984 74.501235 
L 322.851562 84.58722 
L 323.469141 86.444676 
L 324.086719 87.591655 
L 324.704297 89.286583 
L 325.321875 89.286583 
L 325.939453 93.58195 
L 326.557031 95.211867 
L 327.174609 96.084871 
L 327.792188 99.511877 
L 328.409766 99.91123 
L 329.027344 100.073758 
L 329.644922 100.073758 
L 330.2625 99.948379 
L 332.115234 100.384882 
L 332.732813 100.756373 
L 333.967969 100.839958 
L 334.585547 101.41577 
L 335.203125 101.07214 
L 336.438281 101.304322 
L 337.055859 101.41577 
L 337.673437 102.149465 
L 338.908594 102.149465 
L 339.526172 101.661882 
L 340.14375 102.149465 
L 340.761328 102.149465 
L 341.378906 101.41577 
L 341.996484 100.384882 
L 342.614063 100.756373 
L 343.231641 100.296652 
L 343.849219 100.073758 
L 344.466797 98.518138 
L 345.084375 98.518138 
L 345.701953 93.874499 
L 346.937109 89.035826 
L 347.554688 75.299941 
L 348.172266 80.858377 
L 349.407422 100.384882 
L 350.025 88.37643 
L 350.642578 100.844602 
L 351.260156 110.591601 
L 351.877734 135.667255 
L 352.495313 134.134854 
L 353.112891 140.296964 
L 353.730469 144.94989 
L 354.348047 151.827121 
L 354.965625 140.296964 
L 355.583203 144.94989 
L 356.200781 144.954534 
L 356.818359 153.63814 
L 357.435938 154.241813 
L 358.053516 156.563633 
L 358.671094 157.956725 
L 359.288672 161.857382 
L 359.90625 178.853103 
L 360.523828 180.241551 
L 361.758984 180.241551 
L 362.994141 175.142835 
L 363.611719 173.438619 
L 364.846875 173.438619 
L 366.082031 173.285379 
L 366.699609 172.816371 
L 367.317187 164.922184 
L 367.934766 158.885453 
L 369.169922 151.372044 
L 369.7875 154.028206 
L 371.022656 144.94989 
L 371.640234 139.98584 
L 372.257812 143.069216 
L 372.875391 131.023615 
L 373.492969 112.760181 
L 374.110547 99.948379 
L 374.728125 105.019234 
L 375.345703 95.239729 
L 375.963281 73.019914 
L 376.580859 57.547307 
L 377.198438 64.782097 
L 377.816016 63.690842 
L 378.433594 59.381544 
L 379.051172 59.381544 
L 379.66875 69.031027 
L 380.286328 69.031027 
L 380.903906 73.396048 
L 381.521484 74.696267 
L 382.139062 86.90904 
L 382.756641 93.637673 
L 383.374219 95.239729 
L 383.991797 99.075375 
L 384.609375 95.193293 
L 385.226953 98.518138 
L 385.844531 99.511877 
L 386.462109 100.073758 
L 387.079688 99.855507 
L 387.697266 100.073758 
L 388.314844 100.728511 
L 388.932422 100.524191 
L 389.55 100.143412 
L 390.167578 100.728511 
L 390.785156 100.844602 
L 391.402734 101.165013 
L 392.020312 103.161778 
L 392.637891 104.410917 
L 396.960938 104.448066 
L 397.578516 105.019234 
L 398.196094 105.019234 
L 398.813672 104.448066 
L 399.43125 105.112107 
L 400.048828 104.461997 
L 400.666406 104.461997 
L 401.283984 103.440396 
L 401.901563 100.292009 
L 402.519141 99.855507 
L 403.136719 98.722459 
L 403.754297 93.437997 
L 404.371875 89.263365 
L 404.989453 81.327385 
L 405.607031 78.100055 
L 406.224609 77.129535 
L 406.842188 69.732217 
L 407.459766 74.696267 
L 408.077344 82.2654 
L 408.694922 98.518138 
L 409.3125 97.970189 
L 409.930078 98.843193 
L 410.547656 103.500764 
L 411.165234 118.253607 
L 411.782812 115.699605 
L 412.400391 135.212178 
L 413.017969 139.228927 
L 413.635547 144.94989 
L 414.253125 140.296964 
L 414.870703 140.296964 
L 415.488281 144.94989 
L 416.105859 144.94989 
L 416.723438 149.598174 
L 417.341016 158.28178 
L 417.958594 159.535562 
L 418.576172 160.232108 
L 419.19375 172.816371 
L 419.811328 174.618104 
L 420.428906 179.252456 
L 421.046484 182.099007 
L 421.664062 180.654835 
L 422.281641 175.138191 
L 422.899219 173.285379 
L 424.751953 173.234299 
L 425.369531 173.438619 
L 425.987109 170.954272 
L 426.604688 161.207273 
L 427.222266 159.349817 
L 427.839844 156.744735 
L 428.457422 150.276145 
L 429.075 148.901628 
L 430.310156 139.651498 
L 430.927734 137.989075 
L 431.545313 139.228927 
L 432.162891 133.345435 
L 432.780469 104.253033 
L 433.398047 93.869855 
L 434.015625 100.839958 
L 434.633203 88.771139 
L 435.868359 58.058107 
L 437.103516 72.978121 
L 437.721094 74.696267 
L 438.338672 77.70999 
L 438.95625 77.70999 
L 439.573828 79.94358 
L 440.191406 89.230859 
L 440.808984 96.447075 
L 441.426562 88.803644 
L 442.044141 93.874499 
L 443.279297 100.073758 
L 443.896875 97.970189 
L 444.514453 99.214684 
L 445.132031 100.904969 
L 445.749609 105.344289 
L 446.367188 94.933249 
L 447.602344 100.928187 
L 448.219922 104.127655 
L 448.8375 103.431109 
L 449.455078 105.130681 
L 450.690234 106.245155 
L 451.307813 105.864376 
L 452.542969 105.938674 
L 453.160547 106.375177 
L 454.395703 106.375177 
L 455.013281 105.938674 
L 455.630859 106.212649 
L 456.248437 105.947962 
L 462.424219 105.878307 
L 463.041797 102.878516 
L 463.659375 100.877107 
L 464.276953 99.966954 
L 464.894531 100.56134 
L 465.512109 100.022678 
L 466.129687 93.252251 
L 466.747266 97.125047 
L 467.364844 103.95584 
L 467.982422 112.449057 
L 468.6 101.689744 
L 470.452734 139.753658 
L 471.070312 142.600209 
L 471.687891 149.769988 
L 472.305469 173.438619 
L 472.923047 189.175914 
L 473.540625 188.261117 
L 474.158203 190.694384 
L 474.775781 190.694384 
L 475.393359 190.889417 
L 476.010938 190.578293 
L 478.48125 190.578293 
L 479.098828 190.926566 
L 480.333984 191.08445 
L 485.892187 191.121599 
L 488.3625 190.462202 
L 489.597656 173.234299 
L 490.215234 148.446551 
L 490.832813 146.022571 
L 491.450391 137.66402 
L 492.067969 117.088053 
L 492.685547 100.756373 
L 493.303125 105.938674 
L 493.920703 93.874499 
L 494.538281 78.267226 
L 495.155859 74.798428 
L 495.773438 80.421875 
L 496.391016 83.658492 
L 497.626172 92.950415 
L 498.24375 90.076002 
L 498.861328 93.763052 
L 500.096484 98.518138 
L 500.714063 95.267591 
L 501.331641 98.230233 
L 501.949219 99.572245 
L 502.566797 102.28413 
L 503.184375 100.747085 
L 504.419531 106.621289 
L 505.037109 108.827018 
L 505.037109 108.827018 
" clip-path="url(#pcca6787718)" style="fill: none; stroke: #eb6834; stroke-width: 1.5; stroke-linecap: round"/>
   </g>
   <g id="patch_3">
    <path d="M 31.354688 198.629435 
L 505.654688 198.629435 
" style="fill: none; stroke: #c3c2b7; stroke-width: 0.75; stroke-linejoin: miter; stroke-linecap: square"/>
   </g>
   <g id="line2d_36">
    <path d="M 31.354688 104.907786 
L 31.972266 105.985111 
L 32.589844 107.563948 
L 33.207422 109.978641 
L 33.825 108.608767 
L 34.442578 110.71698 
L 35.060156 111.218493 
L 35.677734 112.825192 
L 36.295313 109.439979 
L 36.912891 109.86255 
L 37.530469 109.374968 
L 38.148047 110.986311 
L 38.765625 107.805418 
L 39.383203 108.515894 
L 40.000781 108.511251 
L 40.618359 109.426048 
L 41.235937 104.601306 
L 41.853516 105.632194 
L 43.088672 104.875281 
L 43.70625 104.318044 
L 44.323828 104.81027 
L 44.941406 104.643099 
L 45.558984 104.331975 
L 46.176563 103.779382 
L 46.794141 102.07981 
L 47.411719 101.894064 
L 48.029297 100.849246 
L 48.646875 98.973215 
L 49.264453 98.18844 
L 49.882031 97.93304 
L 50.499609 98.011982 
L 51.117188 93.976659 
L 51.734766 98.513495 
L 52.352344 99.419005 
L 52.969922 102.455945 
L 53.5875 155.964603 
L 54.822656 169.171114 
L 55.440234 177.385713 
L 56.057813 163.29691 
L 57.292969 187.898913 
L 57.910547 191.140173 
L 58.528125 177.780422 
L 59.145703 188.135738 
L 59.763281 191.650974 
L 74.585156 191.650974 
L 75.202734 177.042083 
L 75.820312 173.954063 
L 76.437891 165.994865 
L 77.055469 160.167097 
L 78.290625 140.937786 
L 78.908203 131.065408 
L 79.525781 128.776094 
L 80.143359 125.293364 
L 80.760938 116.038591 
L 81.378516 115.903925 
L 81.996094 116.238267 
L 82.613672 117.060191 
L 83.23125 104.926361 
L 83.848828 100.900326 
L 84.466406 101.308966 
L 85.083984 102.43737 
L 85.701562 97.979476 
L 86.319141 97.046105 
L 86.936719 97.106472 
L 87.554297 100.946762 
L 88.171875 98.83855 
L 88.789453 100.514903 
L 89.407031 102.771712 
L 90.024609 104.550226 
M 149.929688 96.001286 
L 150.547266 97.306149 
L 151.164844 97.612629 
L 151.782422 99.103237 
L 152.4 98.78747 
L 153.017578 99.261121 
L 153.635156 100.324514 
L 154.252734 101.165013 
L 154.870313 104.00692 
L 155.487891 104.211241 
L 156.105469 104.712754 
L 156.723047 104.652386 
L 157.340625 108.455527 
L 157.958203 108.325505 
L 159.193359 109.114924 
L 159.810937 106.690944 
L 161.046094 106.700231 
L 161.663672 105.887594 
L 162.28125 103.760808 
L 162.898828 103.477545 
L 163.516406 102.432727 
L 164.133984 101.903352 
L 164.751563 91.083671 
L 165.369141 90.772548 
L 165.986719 90.294253 
L 166.604297 88.557532 
L 167.839453 84.183223 
L 169.692187 82.864429 
L 170.309766 81.471338 
L 170.927344 83.867456 
L 171.544922 90.233885 
L 172.1625 114.037182 
L 172.780078 119.307713 
L 173.397656 128.135272 
L 174.015234 134.664229 
L 174.632812 129.249745 
L 175.250391 135.365418 
L 176.485547 150.944829 
L 177.103125 126.101357 
L 177.720703 133.419733 
L 178.955859 154.585443 
L 179.573438 149.143097 
L 180.191016 154.994083 
L 180.808594 156.340738 
L 181.426172 159.707377 
L 182.04375 159.739882 
L 182.661328 164.378878 
L 183.278906 165.484065 
L 183.896484 167.675862 
L 184.514063 173.86119 
L 185.131641 174.070154 
L 185.749219 175.026744 
L 186.366797 175.221777 
L 186.984375 173.508274 
L 188.219531 173.977281 
L 188.837109 173.461837 
L 190.689844 172.412375 
L 191.307422 171.307189 
L 191.925 165.906636 
L 192.542578 164.281362 
L 193.160156 163.417645 
L 193.777734 158.592903 
L 195.012891 134.515632 
L 195.630469 126.904707 
L 196.865625 105.595045 
L 198.100781 94.733572 
L 198.718359 92.100629 
L 199.335938 94.371368 
L 199.953516 94.273852 
L 200.571094 93.800201 
L 201.188672 94.584976 
L 201.80625 91.292635 
L 202.423828 91.274061 
L 203.041406 90.730755 
L 203.658984 90.414987 
L 204.276563 90.377838 
L 204.894141 92.750738 
L 205.511719 93.377629 
L 206.129297 96.892865 
L 206.746875 99.210041 
L 208.599609 103.008538 
L 209.217188 93.205815 
L 209.834766 96.716406 
L 211.069922 100.199136 
L 211.6875 99.855507 
L 212.305078 100.547409 
L 212.922656 101.596871 
L 213.540234 103.152491 
L 214.157813 102.813505 
L 214.775391 104.438779 
L 216.010547 104.773121 
L 216.628125 106.709519 
L 217.245703 106.895264 
L 217.863281 106.932413 
L 218.480859 107.294617 
L 219.098437 102.428083 
L 219.716016 102.511668 
L 220.333594 103.867611 
L 220.951172 103.900117 
L 221.56875 99.878725 
L 222.186328 99.776565 
L 222.803906 98.429909 
L 223.421484 96.623533 
L 224.039062 96.456362 
L 224.656641 95.300096 
L 225.274219 94.761434 
L 225.891797 91.404083 
L 226.509375 92.718233 
L 227.126953 92.012399 
L 227.744531 90.215311 
L 228.362109 89.616281 
L 228.979688 85.186249 
L 229.597266 85.831715 
L 230.214844 88.98939 
L 230.832422 98.327749 
L 231.45 119.609549 
L 232.685156 128.548556 
L 233.302734 141.327852 
L 233.920312 135.351487 
L 234.537891 143.997944 
L 235.773047 156.805102 
L 236.390625 141.950099 
L 237.008203 148.971282 
L 238.243359 172.588833 
L 238.860938 154.845486 
L 239.478516 161.346582 
L 240.096094 164.425315 
L 240.713672 169.941959 
L 241.33125 174.046936 
L 241.948828 179.749325 
L 242.566406 179.879347 
L 243.183984 182.674818 
L 243.801562 181.84825 
L 244.419141 182.470498 
L 245.036719 184.536918 
L 245.654297 184.806249 
L 246.271875 184.583354 
L 246.889453 184.857329 
L 247.507031 184.680871 
L 248.124609 184.137565 
L 248.742188 180.845224 
L 249.359766 178.750943 
L 249.977344 176.224803 
L 250.594922 175.648992 
L 251.2125 167.903401 
L 251.830078 165.651236 
L 252.447656 161.346582 
L 253.682813 148.827329 
L 254.300391 140.580226 
L 255.535547 120.505772 
L 256.153125 104.926361 
L 256.770703 97.399021 
L 258.623438 89.718441 
L 259.241016 89.727729 
L 259.858594 89.978485 
L 260.476172 90.628595 
L 261.09375 86.128908 
L 261.711328 87.429127 
L 262.328906 86.904396 
L 262.946484 90.619308 
L 263.564062 83.491321 
L 264.181641 87.104072 
L 264.799219 88.014226 
L 265.416797 90.944362 
L 266.034375 90.345333 
L 266.651953 92.17957 
L 267.269531 95.4069 
L 267.887109 96.544592 
L 268.504688 92.88076 
L 269.122266 94.487459 
L 269.739844 95.030765 
L 270.357422 96.563166 
L 270.975 96.744268 
L 271.592578 97.148265 
L 272.210156 97.854098 
L 272.827734 99.381855 
L 273.445312 98.666735 
L 274.062891 100.250216 
L 274.680469 100.575271 
L 275.298047 100.6635 
L 275.915625 96.716406 
L 276.533203 96.781417 
L 277.150781 97.496538 
L 277.768359 98.629586 
L 278.385938 93.651604 
L 279.003516 93.809488 
L 279.621094 95.221154 
L 280.238672 95.105063 
L 280.85625 94.75679 
L 281.473828 94.696423 
L 282.708984 93.456571 
L 283.326563 92.513912 
L 283.944141 91.130108 
L 284.561719 90.883995 
L 285.179297 89.476972 
L 285.796875 89.119412 
L 286.414453 87.508069 
L 287.032031 87.238738 
L 287.649609 86.830098 
L 288.267188 83.305575 
L 288.884766 83.101255 
L 289.502344 85.655257 
L 290.119922 93.242964 
L 290.7375 124.98224 
L 292.590234 148.664802 
L 293.207812 140.208734 
L 293.825391 144.350861 
L 294.442969 149.486726 
L 295.060547 157.037284 
L 295.678125 135.588313 
L 296.913281 147.866096 
L 297.530859 161.792371 
L 298.148438 152.356496 
L 298.766016 156.990848 
L 299.383594 162.767535 
L 300.001172 171.153949 
L 300.61875 170.745308 
L 301.236328 176.944567 
L 302.471484 180.148678 
L 303.089063 179.280318 
L 303.706641 177.608608 
L 304.324219 177.678262 
L 304.941797 177.469298 
L 305.559375 176.939923 
L 306.794531 177.789709 
L 307.412109 178.059041 
L 308.029687 174.706333 
L 309.264844 173.271448 
L 309.882422 172.964968 
L 310.5 157.901001 
L 311.735156 154.947646 
L 312.352734 152.584034 
L 313.587891 137.116071 
L 314.205469 126.338183 
L 314.823047 120.06927 
L 315.440625 107.963301 
L 316.058203 104.768477 
L 316.675781 99.878725 
L 317.293359 96.214893 
L 317.910937 93.693397 
L 318.528516 92.62536 
L 319.763672 93.572662 
L 320.38125 90.730755 
L 321.616406 91.56661 
L 322.233984 95.834115 
L 322.851562 80.222199 
L 323.469141 81.633865 
L 324.086719 84.132143 
L 324.704297 90.716824 
L 325.321875 94.50139 
L 325.939453 95.527635 
L 326.557031 98.504208 
L 327.174609 100.208423 
L 327.792188 93.99059 
L 328.409766 95.021478 
L 329.644922 97.445458 
L 330.2625 96.97645 
L 330.880078 98.267382 
L 331.497656 98.629586 
L 332.115234 99.288983 
L 332.732813 94.403874 
L 333.350391 96.526017 
L 334.585547 97.013599 
L 335.203125 97.217919 
L 335.820703 98.202371 
L 336.438281 98.2906 
L 337.055859 98.745677 
L 337.673437 94.835732 
L 338.908594 94.891456 
L 339.526172 93.53087 
L 340.14375 95.471911 
L 340.761328 96.865003 
L 341.378906 94.687136 
L 343.849219 93.44264 
L 344.466797 92.913265 
L 345.084375 95.002903 
L 345.701953 93.707328 
L 346.319531 92.978276 
L 346.937109 90.512504 
L 347.554688 83.639917 
L 348.172266 82.845855 
L 348.789844 88.385717 
L 349.407422 92.908622 
L 350.025 110.726267 
L 350.642578 115.235241 
L 351.260156 121.810634 
L 351.877734 133.243275 
L 352.495313 132.40742 
L 353.112891 141.546103 
L 353.730469 145.850757 
L 354.348047 153.2295 
L 354.965625 131.070052 
L 355.583203 144.773432 
L 356.200781 148.804111 
L 356.818359 160.947229 
L 357.435938 150.540832 
L 358.671094 160.626818 
L 359.288672 167.926619 
L 359.90625 164.820024 
L 361.141406 174.571667 
L 361.758984 175.987977 
L 362.376563 174.125878 
L 362.994141 175.769726 
L 364.229297 176.104068 
L 364.846875 175.184628 
L 365.464453 175.537544 
L 366.082031 175.147479 
L 366.699609 174.441645 
L 367.317187 170.629217 
L 367.934766 170.146279 
L 368.552344 168.841416 
L 369.169922 166.47316 
L 369.7875 157.255535 
L 371.022656 151.803902 
L 371.640234 147.007023 
L 372.257812 132.435282 
L 372.875391 125.22371 
L 373.492969 112.727676 
L 375.963281 90.591446 
L 376.580859 87.36876 
L 377.198438 88.455372 
L 377.816016 88.650404 
L 379.051172 89.509478 
L 379.66875 87.252669 
L 380.286328 87.661309 
L 380.903906 88.915092 
L 381.521484 91.399439 
L 382.139062 78.174354 
L 382.756641 79.58602 
L 383.374219 83.421666 
L 383.991797 84.847264 
L 384.609375 86.709363 
L 385.226953 87.800618 
L 385.844531 90.284965 
L 386.462109 89.834532 
L 387.079688 91.608403 
L 387.697266 94.524608 
L 388.314844 94.863594 
L 388.932422 96.437788 
L 389.55 96.855715 
L 390.167578 97.88196 
L 390.785156 98.374186 
L 391.402734 99.674405 
L 392.020312 97.213276 
L 392.637891 97.43617 
L 393.255469 97.891247 
L 395.108203 98.583149 
L 395.725781 99.660474 
L 396.343359 99.748703 
L 396.960938 95.731955 
L 397.578516 95.861977 
L 398.196094 95.875908 
L 398.813672 95.769104 
L 399.43125 97.877316 
L 400.048828 97.891247 
L 400.666406 97.775156 
L 401.283984 97.33401 
L 402.519141 98.248807 
L 403.136719 98.193084 
L 403.754297 97.190058 
L 404.371875 98.727102 
L 404.989453 95.532278 
L 405.607031 94.728929 
L 406.224609 92.263156 
L 406.842188 81.954276 
L 407.459766 86.012817 
L 408.694922 98.34168 
L 409.3125 118.578661 
L 409.930078 124.262476 
L 410.547656 128.743588 
L 411.165234 142.265867 
L 411.782812 135.574382 
L 412.400391 141.513597 
L 413.017969 145.432829 
L 413.635547 152.542241 
L 414.253125 132.66282 
L 414.870703 141.323208 
L 415.488281 144.518032 
L 416.105859 153.094834 
L 416.723438 145.767171 
L 417.341016 150.65228 
L 417.958594 153.340947 
L 418.576172 158.467525 
L 419.19375 155.086956 
L 419.811328 159.554137 
L 420.428906 160.663967 
L 421.046484 163.631252 
L 421.664062 165.530501 
L 422.281641 165.46549 
L 422.899219 166.357069 
L 423.516797 167.499404 
L 424.134375 169.198976 
L 424.751953 169.412584 
L 425.369531 169.751569 
L 425.987109 170.229864 
L 426.604688 165.934498 
L 427.839844 163.282979 
L 428.457422 161.843451 
L 429.075 157.009422 
L 429.692578 156.122487 
L 430.310156 153.540624 
L 430.927734 151.683168 
L 431.545313 147.880027 
L 432.162891 140.218022 
L 432.780469 127.211187 
L 433.398047 116.577253 
L 434.015625 108.840949 
L 434.633203 105.209623 
L 435.868359 92.750738 
L 436.485938 91.896308 
L 437.103516 91.812723 
L 437.721094 92.527843 
L 438.338672 93.944153 
L 438.95625 92.332811 
L 439.573828 92.936484 
L 440.191406 92.690371 
L 440.808984 95.235085 
L 441.426562 93.860568 
L 442.044141 93.224389 
L 442.661719 93.707328 
L 443.279297 96.748912 
L 443.896875 102.093741 
L 445.132031 105.752929 
L 445.749609 106.653795 
L 446.367188 102.767069 
L 446.984766 103.338236 
L 447.602344 104.717397 
L 448.219922 106.667726 
L 448.8375 104.991372 
L 449.455078 105.697205 
L 450.072656 107.415352 
L 450.690234 108.074749 
L 451.307813 102.28413 
L 451.925391 103.728302 
L 452.542969 103.110698 
L 453.160547 103.39396 
L 453.778125 103.003894 
L 454.395703 103.992989 
L 455.013281 104.201953 
L 455.630859 105.21891 
L 456.248437 104.443423 
L 456.866016 104.596663 
L 457.483594 105.497529 
L 458.101172 105.506816 
L 458.71875 103.133916 
L 459.336328 103.13856 
L 459.953906 104.053357 
L 461.189063 103.918691 
L 462.424219 103.988346 
L 463.659375 100.528834 
L 464.276953 97.877316 
L 464.894531 97.747294 
L 465.512109 98.680666 
L 466.129687 94.803227 
L 466.747266 95.778391 
L 467.364844 98.745677 
L 467.982422 105.005303 
L 468.6 132.723187 
L 469.835156 141.156037 
L 470.452734 148.260805 
L 471.070312 145.832182 
L 471.687891 159.781675 
L 472.305469 171.112156 
L 472.923047 176.754178 
L 473.540625 153.2295 
L 474.158203 165.26117 
L 475.393359 180.255482 
L 476.010938 181.685723 
L 476.628516 184.077197 
L 477.246094 183.96575 
L 477.863672 191.650974 
L 487.127344 191.650974 
L 487.744922 182.962724 
L 488.3625 180.38086 
L 488.980078 179.01563 
L 489.597656 177.29284 
L 490.215234 176.689167 
L 490.832813 171.720473 
L 491.450391 168.186663 
L 492.067969 158.760075 
L 492.685547 152.9741 
L 493.920703 133.05753 
L 494.538281 125.669499 
L 495.155859 122.40502 
L 495.773438 122.307504 
L 496.391016 122.442169 
L 497.008594 122.2007 
L 497.626172 123.059774 
L 498.24375 102.381647 
L 498.861328 99.562957 
L 499.478906 100.487042 
L 500.096484 99.55367 
L 500.714063 97.101828 
L 501.949219 98.332393 
L 502.566797 99.010364 
L 503.184375 102.520956 
L 503.801953 103.054974 
L 504.419531 104.215884 
L 505.037109 106.110489 
L 505.037109 106.110489 
" clip-path="url(#pcca6787718)" style="fill: none; stroke: #2a78d6; stroke-width: 1.5; stroke-linecap: round"/>
   </g>
   <g id="text_13">
    <text style="font-weight: 600; font-size: 11px; font-family: 'Segoe UI', 'Helvetica Neue', 'Arial', 'DejaVu Sans', sans-serif; text-anchor: start; fill: #0b0b0b" x="31.354688" y="19.103281" transform="rotate(-0 31.354688 19.103281)">Cuarto a cuarto, últimos 7 días (EUR/MWh)</text>
   </g>
   <g id="legend_1">
    <g id="line2d_37">
     <path d="M 33.154688 38.083281 
L 40.354688 38.083281 
L 47.554688 38.083281 
" style="fill: none; stroke: #2a78d6; stroke-width: 1.5; stroke-linecap: round"/>
    </g>
    <g id="text_14">
     <text style="font-size: 9px; font-family: 'Segoe UI', 'Helvetica Neue', 'Arial', 'DejaVu Sans', sans-serif; text-anchor: start; fill: #52514e" x="54.754688" y="41.233281" transform="rotate(-0 54.754688 41.233281)">Previsión publicada</text>
    </g>
    <g id="line2d_38">
     <path d="M 144.203438 38.083281 
L 151.403437 38.083281 
L 158.603438 38.083281 
" style="fill: none; stroke: #eb6834; stroke-width: 1.5; stroke-linecap: round"/>
    </g>
    <g id="text_15">
     <text style="font-size: 9px; font-family: 'Segoe UI', 'Helvetica Neue', 'Arial', 'DejaVu Sans', sans-serif; text-anchor: start; fill: #52514e" x="165.803438" y="41.233281" transform="rotate(-0 165.803438 41.233281)">Real (OMIE)</text>
    </g>
   </g>
  </g>
  <g id="axes_2">
   <g id="patch_4">
    <path d="M 31.354688 377.743281 
L 505.654688 377.743281 
L 505.654688 275.392512 
L 31.354688 275.392512 
z
" style="fill: #ffffff"/>
   </g>
   <g id="matplotlib.axis_3">
    <g id="xtick_18">
     <g id="line2d_39"/>
     <g id="text_16">
      <text style="font-size: 9px; font-family: 'Segoe UI', 'Helvetica Neue', 'Arial', 'DejaVu Sans', sans-serif; text-anchor: middle; fill: #898781" x="43.114192" y="390.295527" transform="rotate(-0 43.114192 390.295527)">0:00</text>
     </g>
    </g>
    <g id="xtick_19">
     <g id="line2d_40"/>
     <g id="text_17">
      <text style="font-size: 9px; font-family: 'Segoe UI', 'Helvetica Neue', 'Arial', 'DejaVu Sans', sans-serif; text-anchor: middle; fill: #898781" x="101.911712" y="390.295527" transform="rotate(-0 101.911712 390.295527)">3:00</text>
     </g>
    </g>
    <g id="xtick_20">
     <g id="line2d_41"/>
     <g id="text_18">
      <text style="font-size: 9px; font-family: 'Segoe UI', 'Helvetica Neue', 'Arial', 'DejaVu Sans', sans-serif; text-anchor: middle; fill: #898781" x="160.709233" y="390.295527" transform="rotate(-0 160.709233 390.295527)">6:00</text>
     </g>
    </g>
    <g id="xtick_21">
     <g id="line2d_42"/>
     <g id="text_19">
      <text style="font-size: 9px; font-family: 'Segoe UI', 'Helvetica Neue', 'Arial', 'DejaVu Sans', sans-serif; text-anchor: middle; fill: #898781" x="219.506754" y="390.295527" transform="rotate(-0 219.506754 390.295527)">9:00</text>
     </g>
    </g>
    <g id="xtick_22">
     <g id="line2d_43"/>
     <g id="text_20">
      <text style="font-size: 9px; font-family: 'Segoe UI', 'Helvetica Neue', 'Arial', 'DejaVu Sans', sans-serif; text-anchor: middle; fill: #898781" x="278.304274" y="390.295527" transform="rotate(-0 278.304274 390.295527)">12:00</text>
     </g>
    </g>
    <g id="xtick_23">
     <g id="line2d_44"/>
     <g id="text_21">
      <text style="font-size: 9px; font-family: 'Segoe UI', 'Helvetica Neue', 'Arial', 'DejaVu Sans', sans-serif; text-anchor: middle; fill: #898781" x="337.101795" y="390.295527" transform="rotate(-0 337.101795 390.295527)">15:00</text>
     </g>
    </g>
    <g id="xtick_24">
     <g id="line2d_45"/>
     <g id="text_22">
      <text style="font-size: 9px; font-family: 'Segoe UI', 'Helvetica Neue', 'Arial', 'DejaVu Sans', sans-serif; text-anchor: middle; fill: #898781" x="395.899316" y="390.295527" transform="rotate(-0 395.899316 390.295527)">18:00</text>
     </g>
    </g>
    <g id="xtick_25">
     <g id="line2d_46"/>
     <g id="text_23">
      <text style="font-size: 9px; font-family: 'Segoe UI', 'Helvetica Neue', 'Arial', 'DejaVu Sans', sans-serif; text-anchor: middle; fill: #898781" x="454.696836" y="390.295527" transform="rotate(-0 454.696836 390.295527)">21:00</text>
     </g>
    </g>
   </g>
   <g id="matplotlib.axis_4">
    <g id="ytick_5">
     <g id="line2d_47">
      <path d="M 31.354688 377.743281 
L 505.654688 377.743281 
" clip-path="url(#p030fc7ff83)" style="fill: none; stroke: #e1e0d9; stroke-width: 0.75; stroke-linecap: square"/>
     </g>
     <g id="line2d_48"/>
     <g id="text_24">
      <text style="font-size: 9px; font-family: 'Segoe UI', 'Helvetica Neue', 'Arial', 'DejaVu Sans', sans-serif; text-anchor: end; fill: #898781" x="25.354688" y="381.019404" transform="rotate(-0 25.354688 381.019404)">0</text>
     </g>
    </g>
    <g id="ytick_6">
     <g id="line2d_49">
      <path d="M 31.354688 352.990381 
L 505.654688 352.990381 
" clip-path="url(#p030fc7ff83)" style="fill: none; stroke: #e1e0d9; stroke-width: 0.75; stroke-linecap: square"/>
     </g>
     <g id="line2d_50"/>
     <g id="text_25">
      <text style="font-size: 9px; font-family: 'Segoe UI', 'Helvetica Neue', 'Arial', 'DejaVu Sans', sans-serif; text-anchor: end; fill: #898781" x="25.354688" y="356.266504" transform="rotate(-0 25.354688 356.266504)">10</text>
     </g>
    </g>
    <g id="ytick_7">
     <g id="line2d_51">
      <path d="M 31.354688 328.23748 
L 505.654688 328.23748 
" clip-path="url(#p030fc7ff83)" style="fill: none; stroke: #e1e0d9; stroke-width: 0.75; stroke-linecap: square"/>
     </g>
     <g id="line2d_52"/>
     <g id="text_26">
      <text style="font-size: 9px; font-family: 'Segoe UI', 'Helvetica Neue', 'Arial', 'DejaVu Sans', sans-serif; text-anchor: end; fill: #898781" x="25.354688" y="331.513603" transform="rotate(-0 25.354688 331.513603)">20</text>
     </g>
    </g>
    <g id="ytick_8">
     <g id="line2d_53">
      <path d="M 31.354688 303.484579 
L 505.654688 303.484579 
" clip-path="url(#p030fc7ff83)" style="fill: none; stroke: #e1e0d9; stroke-width: 0.75; stroke-linecap: square"/>
     </g>
     <g id="line2d_54"/>
     <g id="text_27">
      <text style="font-size: 9px; font-family: 'Segoe UI', 'Helvetica Neue', 'Arial', 'DejaVu Sans', sans-serif; text-anchor: end; fill: #898781" x="25.354688" y="306.760702" transform="rotate(-0 25.354688 306.760702)">30</text>
     </g>
    </g>
    <g id="ytick_9">
     <g id="line2d_55">
      <path d="M 31.354688 278.731678 
L 505.654688 278.731678 
" clip-path="url(#p030fc7ff83)" style="fill: none; stroke: #e1e0d9; stroke-width: 0.75; stroke-linecap: square"/>
     </g>
     <g id="line2d_56"/>
     <g id="text_28">
      <text style="font-size: 9px; font-family: 'Segoe UI', 'Helvetica Neue', 'Arial', 'DejaVu Sans', sans-serif; text-anchor: end; fill: #898781" x="25.354688" y="282.007801" transform="rotate(-0 25.354688 282.007801)">40</text>
     </g>
    </g>
   </g>
   <g id="patch_5">
    <path d="M 37.23444 377.743281 
L 48.993944 377.743281 
L 48.993944 351.787213 
L 37.23444 351.787213 
z
" clip-path="url(#p030fc7ff83)" style="fill: #2a78d6"/>
   </g>
   <g id="patch_6">
    <path d="M 56.833613 377.743281 
L 68.593117 377.743281 
L 68.593117 361.261828 
L 56.833613 361.261828 
z
" clip-path="url(#p030fc7ff83)" style="fill: #2a78d6"/>
   </g>
   <g id="patch_7">
    <path d="M 76.432787 377.743281 
L 88.192291 377.743281 
L 88.192291 360.76898 
L 76.432787 360.76898 
z
" clip-path="url(#p030fc7ff83)" style="fill: #2a78d6"/>
   </g>
   <g id="patch_8">
    <path d="M 96.03196 377.743281 
L 107.791464 377.743281 
L 107.791464 354.959562 
L 96.03196 354.959562 
z
" clip-path="url(#p030fc7ff83)" style="fill: #2a78d6"/>
   </g>
   <g id="patch_9">
    <path d="M 115.631134 377.743281 
L 127.390638 377.743281 
L 127.390638 351.436694 
L 115.631134 351.436694 
z
" clip-path="url(#p030fc7ff83)" style="fill: #2a78d6"/>
   </g>
   <g id="patch_10">
    <path d="M 135.230307 377.743281 
L 146.989811 377.743281 
L 146.989811 349.126718 
L 135.230307 349.126718 
z
" clip-path="url(#p030fc7ff83)" style="fill: #2a78d6"/>
   </g>
   <g id="patch_11">
    <path d="M 154.829481 377.743281 
L 166.588985 377.743281 
L 166.588985 351.603776 
L 154.829481 351.603776 
z
" clip-path="url(#p030fc7ff83)" style="fill: #2a78d6"/>
   </g>
   <g id="patch_12">
    <path d="M 174.428654 377.743281 
L 186.188159 377.743281 
L 186.188159 349.639457 
L 174.428654 349.639457 
z
" clip-path="url(#p030fc7ff83)" style="fill: #2a78d6"/>
   </g>
   <g id="patch_13">
    <path d="M 194.027828 377.743281 
L 205.787332 377.743281 
L 205.787332 330.330426 
L 194.027828 330.330426 
z
" clip-path="url(#p030fc7ff83)" style="fill: #2a78d6"/>
   </g>
   <g id="patch_14">
    <path d="M 213.627002 377.743281 
L 225.386506 377.743281 
L 225.386506 293.283732 
L 213.627002 293.283732 
z
" clip-path="url(#p030fc7ff83)" style="fill: #2a78d6"/>
   </g>
   <g id="patch_15">
    <path d="M 233.226175 377.743281 
L 244.985679 377.743281 
L 244.985679 331.772724 
L 233.226175 331.772724 
z
" clip-path="url(#p030fc7ff83)" style="fill: #2a78d6"/>
   </g>
   <g id="patch_16">
    <path d="M 252.825349 377.743281 
L 264.584853 377.743281 
L 264.584853 280.266358 
L 252.825349 280.266358 
z
" clip-path="url(#p030fc7ff83)" style="fill: #2a78d6"/>
   </g>
   <g id="patch_17">
    <path d="M 272.424522 377.743281 
L 284.184026 377.743281 
L 284.184026 304.467181 
L 272.424522 304.467181 
z
" clip-path="url(#p030fc7ff83)" style="fill: #2a78d6"/>
   </g>
   <g id="patch_18">
    <path d="M 292.023696 377.743281 
L 303.7832 377.743281 
L 303.7832 329.2855 
L 292.023696 329.2855 
z
" clip-path="url(#p030fc7ff83)" style="fill: #2a78d6"/>
   </g>
   <g id="patch_19">
    <path d="M 311.622869 377.743281 
L 323.382373 377.743281 
L 323.382373 353.357696 
L 311.622869 353.357696 
z
" clip-path="url(#p030fc7ff83)" style="fill: #2a78d6"/>
   </g>
   <g id="patch_20">
    <path d="M 331.222043 377.743281 
L 342.981547 377.743281 
L 342.981547 358.558015 
L 331.222043 358.558015 
z
" clip-path="url(#p030fc7ff83)" style="fill: #2a78d6"/>
   </g>
   <g id="patch_21">
    <path d="M 350.821216 377.743281 
L 362.580721 377.743281 
L 362.580721 346.76591 
L 350.821216 346.76591 
z
" clip-path="url(#p030fc7ff83)" style="fill: #2a78d6"/>
   </g>
   <g id="patch_22">
    <path d="M 370.42039 377.743281 
L 382.179894 377.743281 
L 382.179894 327.249132 
L 370.42039 327.249132 
z
" clip-path="url(#p030fc7ff83)" style="fill: #2a78d6"/>
   </g>
   <g id="patch_23">
    <path d="M 390.019564 377.743281 
L 401.779068 377.743281 
L 401.779068 300.485942 
L 390.019564 300.485942 
z
" clip-path="url(#p030fc7ff83)" style="fill: #2a78d6"/>
   </g>
   <g id="patch_24">
    <path d="M 409.618737 377.743281 
L 421.378241 377.743281 
L 421.378241 294.892228 
L 409.618737 294.892228 
z
" clip-path="url(#p030fc7ff83)" style="fill: #2a78d6"/>
   </g>
   <g id="patch_25">
    <path d="M 429.217911 377.743281 
L 440.977415 377.743281 
L 440.977415 290.366426 
L 429.217911 290.366426 
z
" clip-path="url(#p030fc7ff83)" style="fill: #2a78d6"/>
   </g>
   <g id="patch_26">
    <path d="M 448.817084 377.743281 
L 460.576588 377.743281 
L 460.576588 327.730487 
L 448.817084 327.730487 
z
" clip-path="url(#p030fc7ff83)" style="fill: #2a78d6"/>
   </g>
   <g id="patch_27">
    <path d="M 468.416258 377.743281 
L 480.175762 377.743281 
L 480.175762 343.982977 
L 468.416258 343.982977 
z
" clip-path="url(#p030fc7ff83)" style="fill: #2a78d6"/>
   </g>
   <g id="patch_28">
    <path d="M 488.015431 377.743281 
L 499.774935 377.743281 
L 499.774935 346.657174 
L 488.015431 346.657174 
z
" clip-path="url(#p030fc7ff83)" style="fill: #2a78d6"/>
   </g>
   <g id="patch_29">
    <path d="M 31.354688 377.743281 
L 505.654688 377.743281 
" style="fill: none; stroke: #c3c2b7; stroke-width: 0.75; stroke-linejoin: miter; stroke-linecap: square"/>
   </g>
   <g id="text_29">
    <text style="font-weight: 600; font-size: 11px; font-family: 'Segoe UI', 'Helvetica Neue', 'Arial', 'DejaVu Sans', sans-serif; text-anchor: start; fill: #0b0b0b" x="31.354688" y="249.392512" transform="rotate(-0 31.354688 249.392512)">Error medio absoluto por hora del día, 14 días evaluados (EUR/MWh)</text>
   </g>
  </g>
 </g>
 <defs>
  <clipPath id="pcca6787718">
   <rect x="31.354688" y="45.103281" width="474.3" height="153.526154"/>
  </clipPath>
  <clipPath id="p030fc7ff83">
   <rect x="31.354688" y="275.392512" width="474.3" height="102.350769"/>
  </clipPath>
 </defs>
</svg>
