<?xml version="1.0" encoding="utf-8" standalone="no"?>
<!DOCTYPE svg PUBLIC "-//W3C//DTD SVG 1.1//EN"
  "http://www.w3.org/Graphics/SVG/1.1/DTD/svg11.dtd">
<svg xmlns:xlink="http://www.w3.org/1999/xlink" width="516.454688pt" height="403.165527pt" viewBox="0 0 516.454688 403.165527" xmlns="http://www.w3.org/2000/svg" version="1.1">
 <metadata>
  <rdf:RDF xmlns:dc="http://purl.org/dc/elements/1.1/" xmlns:cc="http://creativecommons.org/ns#" xmlns:rdf="http://www.w3.org/1999/02/22-rdf-syntax-ns#">
   <cc:Work>
    <dc:type rdf:resource="http://purl.org/dc/dcmitype/StillImage"/>
    <dc:format>image/svg+xml</dc:format>
    <dc:creator>
     <cc:Agent>
      <dc:title>Matplotlib v3.11.1, https://matplotlib.org/</dc:title>
     </cc:Agent>
    </dc:creator>
   </cc:Work>
  </rdf:RDF>
 </metadata>
 <defs>
  <style type="text/css">*{stroke-linejoin: round; stroke-linecap: butt}</style>
 </defs>
 <g id="figure_1">
  <g id="patch_1">
   <path d="M 0 403.165527 
L 516.454688 403.165527 
L 516.454688 0 
L 0 0 
z
" style="fill: #0d1117"/>
  </g>
  <g id="axes_1">
   <g id="patch_2">
    <path d="M 31.354688 198.629435 
L 505.654688 198.629435 
L 505.654688 45.103281 
L 31.354688 45.103281 
z
" style="fill: #0d1117"/>
   </g>
   <g id="matplotlib.axis_1">
    <g id="xtick_1">
     <g id="line2d_1"/>
    </g>
    <g id="xtick_2">
     <g id="line2d_2"/>
    </g>
    <g id="xtick_3">
     <g id="line2d_3"/>
    </g>
    <g id="xtick_4">
     <g id="line2d_4"/>
    </g>
    <g id="xtick_5">
     <g id="line2d_5"/>
    </g>
    <g id="xtick_6">
     <g id="line2d_6"/>
    </g>
    <g id="xtick_7">
     <g id="line2d_7"/>
    </g>
   </g>
   <g id="matplotlib.axis_2">
    <g id="ytick_1">
     <g id="line2d_8">
      <path d="M 31.354688 197.997355 
L 505.654688 197.997355 
" clip-path="url(#pcca6787718)" style="fill: none; stroke: #2c2c2a; stroke-width: 0.75; stroke-linecap: square"/>
     </g>
     <g id="line2d_9"/>
     <g id="text_1">
      <text style="font-size: 9px; font-family: 'Segoe UI', 'Helvetica Neue', 'Arial', 'DejaVu Sans', sans-serif; text-anchor: end; fill: #898781" x="25.354688" y="201.273478" transform="rotate(-0 25.354688 201.273478)">100</text>
     </g>
    </g>
    <g id="ytick_2">
     <g id="line2d_10">
      <path d="M 31.354688 163.801188 
L 505.654688 163.801188 
" clip-path="url(#pcca6787718)" style="fill: none; stroke: #2c2c2a; stroke-width: 0.75; stroke-linecap: square"/>
     </g>
     <g id="line2d_11"/>
     <g id="text_2">
      <text style="font-size: 9px; font-family: 'Segoe UI', 'Helvetica Neue', 'Arial', 'DejaVu Sans', sans-serif; text-anchor: end; fill: #898781" x="25.354688" y="167.077311" transform="rotate(-0 25.354688 167.077311)">125</text>
     </g>
    </g>
    <g id="ytick_3">
     <g id="line2d_12">
      <path d="M 31.354688 129.605022 
L 505.654688 129.605022 
" clip-path="url(#pcca6787718)" style="fill: none; stroke: #2c2c2a; stroke-width: 0.75; stroke-linecap: square"/>
     </g>
     <g id="line2d_13"/>
     <g id="text_3">
      <text style="font-size: 9px; font-family: 'Segoe UI', 'Helvetica Neue', 'Arial', 'DejaVu Sans', sans-serif; text-anchor: end; fill: #898781" x="25.354688" y="132.881145" transform="rotate(-0 25.354688 132.881145)">150</text>
     </g>
    </g>
    <g id="ytick_4">
     <g id="line2d_14">
      <path d="M 31.354688 95.408856 
L 505.654688 95.408856 
" clip-path="url(#pcca6787718)" style="fill: none; stroke: #2c2c2a; stroke-width: 0.75; stroke-linecap: square"/>
     </g>
     <g id="line2d_15"/>
     <g id="text_4">
      <text style="font-size: 9px; font-family: 'Segoe UI', 'Helvetica Neue', 'Arial', 'DejaVu Sans', sans-serif; text-anchor: end; fill: #898781" x="25.354688" y="98.684979" transform="rotate(-0 25.354688 98.684979)">175</text>
     </g>
    </g>
    <g id="ytick_5">
     <g id="line2d_16">
      <path d="M 31.354688 61.212689 
L 505.654688 61.212689 
" clip-path="url(#pcca6787718)" style="fill: none; stroke: #2c2c2a; stroke-width: 0.75; stroke-linecap: square"/>
     </g>
     <g id="line2d_17"/>
     <g id="text_5">
      <text style="font-size: 9px; font-family: 'Segoe UI', 'Helvetica Neue', 'Arial', 'DejaVu Sans', sans-serif; text-anchor: end; fill: #898781" x="25.354688" y="64.488812" transform="rotate(-0 25.354688 64.488812)">200</text>
     </g>
    </g>
   </g>
   <g id="line2d_18">
    <path d="M 40.138021 172.995967 
L 57.704688 168.73541 
L 75.271354 92.013176 
L 92.838021 105.834982 
L 110.404687 191.650974 
L 127.971354 160.140631 
L 145.538021 162.095797 
L 163.104687 183.844701 
L 198.238021 144.961238 
L 215.804688 120.063009 
L 233.371354 115.538571 
L 250.938021 115.139474 
L 268.504688 114.042204 
L 286.071354 156.027117 
L 303.638021 179.292194 
L 338.771354 156.830015 
L 356.338021 102.10646 
L 373.904687 126.856932 
L 391.471354 91.68988 
L 461.738021 52.081743 
L 479.304688 85.280094 
L 496.871354 188.56477 
" clip-path="url(#pcca6787718)" style="fill: none; stroke: #d95926; stroke-width: 1.5; stroke-linecap: round"/>
    <defs>
     <path id="m7afbdd8af4" d="M 0 3 
C 0.795609 3 1.55874 2.683901 2.12132 2.12132 
C 2.683901 1.55874 3 0.795609 3 0 
C 3 -0.795609 2.683901 -1.55874 2.12132 -2.12132 
C 1.55874 -2.683901 0.795609 -3 0 -3 
C -0.795609 -3 -1.55874 -2.683901 -2.12132 -2.12132 
C -2.683901 -1.55874 -3 -0.795609 -3 0 
C -3 0.795609 -2.683901 1.55874 -2.12132 2.12132 
C -1.55874 2.683901 -0.795609 3 0 3 
z
" style="stroke: #0d1117; stroke-width: 1.5"/>
    </defs>
    <g clip-path="url(#pcca6787718)">
     <use xlink:href="#m7afbdd8af4" x="40.138021" y="172.995967" style="fill: #d95926; stroke: #0d1117; stroke-width: 1.5"/>
     <use xlink:href="#m7afbdd8af4" x="57.704688" y="168.73541" style="fill: #d95926; stroke: #0d1117; stroke-width: 1.5"/>
     <use xlink:href="#m7afbdd8af4" x="75.271354" y="92.013176" style="fill: #d95926; stroke: #0d1117; stroke-width: 1.5"/>
     <use xlink:href="#m7afbdd8af4" x="92.838021" y="105.834982" style="fill: #d95926; stroke: #0d1117; stroke-width: 1.5"/>
     <use xlink:href="#m7afbdd8af4" x="110.404687" y="191.650974" style="fill: #d95926; stroke: #0d1117; stroke-width: 1.5"/>
     <use xlink:href="#m7afbdd8af4" x="127.971354" y="160.140631" style="fill: #d95926; stroke: #0d1117; stroke-width: 1.5"/>
     <use xlink:href="#m7afbdd8af4" x="145.538021" y="162.095797" style="fill: #d95926; stroke: #0d1117; stroke-width: 1.5"/>
     <use xlink:href="#m7afbdd8af4" x="163.104687" y="183.844701" style="fill: #d95926; stroke: #0d1117; stroke-width: 1.5"/>
     <use xlink:href="#m7afbdd8af4" x="198.238021" y="144.961238" style="fill: #d95926; stroke: #0d1117; stroke-width: 1.5"/>
     <use xlink:href="#m7afbdd8af4" x="215.804688" y="120.063009" style="fill: #d95926; stroke: #0d1117; stroke-width: 1.5"/>
     <use xlink:href="#m7afbdd8af4" x="233.371354" y="115.538571" style="fill: #d95926; stroke: #0d1117; stroke-width: 1.5"/>
     <use xlink:href="#m7afbdd8af4" x="250.938021" y="115.139474" style="fill: #d95926; stroke: #0d1117; stroke-width: 1.5"/>
     <use xlink:href="#m7afbdd8af4" x="268.504688" y="114.042204" style="fill: #d95926; stroke: #0d1117; stroke-width: 1.5"/>
     <use xlink:href="#m7afbdd8af4" x="286.071354" y="156.027117" style="fill: #d95926; stroke: #0d1117; stroke-width: 1.5"/>
     <use xlink:href="#m7afbdd8af4" x="303.638021" y="179.292194" style="fill: #d95926; stroke: #0d1117; stroke-width: 1.5"/>
     <use xlink:href="#m7afbdd8af4" x="338.771354" y="156.830015" style="fill: #d95926; stroke: #0d1117; stroke-width: 1.5"/>
     <use xlink:href="#m7afbdd8af4" x="356.338021" y="102.10646" style="fill: #d95926; stroke: #0d1117; stroke-width: 1.5"/>
     <use xlink:href="#m7afbdd8af4" x="373.904687" y="126.856932" style="fill: #d95926; stroke: #0d1117; stroke-width: 1.5"/>
     <use xlink:href="#m7afbdd8af4" x="391.471354" y="91.68988" style="fill: #d95926; stroke: #0d1117; stroke-width: 1.5"/>
     <use xlink:href="#m7afbdd8af4" x="461.738021" y="52.081743" style="fill: #d95926; stroke: #0d1117; stroke-width: 1.5"/>
     <use xlink:href="#m7afbdd8af4" x="479.304688" y="85.280094" style="fill: #d95926; stroke: #0d1117; stroke-width: 1.5"/>
     <use xlink:href="#m7afbdd8af4" x="496.871354" y="188.56477" style="fill: #d95926; stroke: #0d1117; stroke-width: 1.5"/>
    </g>
   </g>
   <g id="patch_3">
    <path d="M 31.354687 198.629435 
L 505.654687 198.629435 
" style="fill: none; stroke: #383835; stroke-width: 0.75; stroke-linejoin: miter; stroke-linecap: square"/>
   </g>
   <g id="line2d_19">
    <path d="M 40.138021 174.563007 
L 57.704688 164.784755 
L 75.271354 98.835026 
L 92.838021 104.766209 
L 110.404687 165.034815 
L 127.971354 156.876607 
L 145.538021 145.639747 
L 163.104687 180.659043 
L 198.238021 126.227438 
L 215.804688 134.141286 
L 233.371354 126.826583 
L 250.938021 117.732398 
L 268.504688 122.791721 
L 286.071354 169.368609 
L 303.638021 175.635199 
L 338.771354 136.51507 
L 356.338021 107.296013 
L 373.904687 123.47023 
L 391.471354 106.687036 
L 461.738021 54.898937 
L 479.304688 79.777788 
L 496.871354 153.653476 
" clip-path="url(#pcca6787718)" style="fill: none; stroke: #3987e5; stroke-width: 1.5; stroke-linecap: round"/>
    <defs>
     <path id="m2481d50546" d="M 0 3 
C 0.795609 3 1.55874 2.683901 2.12132 2.12132 
C 2.683901 1.55874 3 0.795609 3 0 
C 3 -0.795609 2.683901 -1.55874 2.12132 -2.12132 
C 1.55874 -2.683901 0.795609 -3 0 -3 
C -0.795609 -3 -1.55874 -2.683901 -2.12132 -2.12132 
C -2.683901 -1.55874 -3 -0.795609 -3 0 
C -3 0.795609 -2.683901 1.55874 -2.12132 2.12132 
C -1.55874 2.683901 -0.795609 3 0 3 
z
" style="stroke: #0d1117; stroke-width: 1.5"/>
    </defs>
    <g clip-path="url(#pcca6787718)">
     <use xlink:href="#m2481d50546" x="40.138021" y="174.563007" style="fill: #3987e5; stroke: #0d1117; stroke-width: 1.5"/>
     <use xlink:href="#m2481d50546" x="57.704688" y="164.784755" style="fill: #3987e5; stroke: #0d1117; stroke-width: 1.5"/>
     <use xlink:href="#m2481d50546" x="75.271354" y="98.835026" style="fill: #3987e5; stroke: #0d1117; stroke-width: 1.5"/>
     <use xlink:href="#m2481d50546" x="92.838021" y="104.766209" style="fill: #3987e5; stroke: #0d1117; stroke-width: 1.5"/>
     <use xlink:href="#m2481d50546" x="110.404687" y="165.034815" style="fill: #3987e5; stroke: #0d1117; stroke-width: 1.5"/>
     <use xlink:href="#m2481d50546" x="127.971354" y="156.876607" style="fill: #3987e5; stroke: #0d1117; stroke-width: 1.5"/>
     <use xlink:href="#m2481d50546" x="145.538021" y="145.639747" style="fill: #3987e5; stroke: #0d1117; stroke-width: 1.5"/>
     <use xlink:href="#m2481d50546" x="163.104687" y="180.659043" style="fill: #3987e5; stroke: #0d1117; stroke-width: 1.5"/>
     <use xlink:href="#m2481d50546" x="198.238021" y="126.227438" style="fill: #3987e5; stroke: #0d1117; stroke-width: 1.5"/>
     <use xlink:href="#m2481d50546" x="215.804688" y="134.141286" style="fill: #3987e5; stroke: #0d1117; stroke-width: 1.5"/>
     <use xlink:href="#m2481d50546" x="233.371354" y="126.826583" style="fill: #3987e5; stroke: #0d1117; stroke-width: 1.5"/>
     <use xlink:href="#m2481d50546" x="250.938021" y="117.732398" style="fill: #3987e5; stroke: #0d1117; stroke-width: 1.5"/>
     <use xlink:href="#m2481d50546" x="268.504688" y="122.791721" style="fill: #3987e5; stroke: #0d1117; stroke-width: 1.5"/>
     <use xlink:href="#m2481d50546" x="286.071354" y="169.368609" style="fill: #3987e5; stroke: #0d1117; stroke-width: 1.5"/>
     <use xlink:href="#m2481d50546" x="303.638021" y="175.635199" style="fill: #3987e5; stroke: #0d1117; stroke-width: 1.5"/>
     <use xlink:href="#m2481d50546" x="338.771354" y="136.51507" style="fill: #3987e5; stroke: #0d1117; stroke-width: 1.5"/>
     <use xlink:href="#m2481d50546" x="356.338021" y="107.296013" style="fill: #3987e5; stroke: #0d1117; stroke-width: 1.5"/>
     <use xlink:href="#m2481d50546" x="373.904687" y="123.47023" style="fill: #3987e5; stroke: #0d1117; stroke-width: 1.5"/>
     <use xlink:href="#m2481d50546" x="391.471354" y="106.687036" style="fill: #3987e5; stroke: #0d1117; stroke-width: 1.5"/>
     <use xlink:href="#m2481d50546" x="461.738021" y="54.898937" style="fill: #3987e5; stroke: #0d1117; stroke-width: 1.5"/>
     <use xlink:href="#m2481d50546" x="479.304688" y="79.777788" style="fill: #3987e5; stroke: #0d1117; stroke-width: 1.5"/>
     <use xlink:href="#m2481d50546" x="496.871354" y="153.653476" style="fill: #3987e5; stroke: #0d1117; stroke-width: 1.5"/>
    </g>
   </g>
   <g id="text_6">
    <text style="font-weight: 600; font-size: 11px; font-family: 'Segoe UI', 'Helvetica Neue', 'Arial', 'DejaVu Sans', sans-serif; text-anchor: start; fill: #ffffff" x="31.354688" y="19.103281" transform="rotate(-0 31.354688 19.103281)">Precio medio de cada día (EUR/MWh)</text>
   </g>
   <g id="legend_1">
    <g id="line2d_20">
     <path d="M 33.154688 38.083281 
L 40.354688 38.083281 
L 47.554688 38.083281 
" style="fill: none; stroke: #3987e5; stroke-width: 1.5; stroke-linecap: round"/>
     <g>
      <use xlink:href="#m2481d50546" x="40.354688" y="38.083281" style="fill: #3987e5; stroke: #0d1117; stroke-width: 1.5"/>
     </g>
    </g>
    <g id="text_7">
     <text style="font-size: 9px; font-family: 'Segoe UI', 'Helvetica Neue', 'Arial', 'DejaVu Sans', sans-serif; text-anchor: start; fill: #c3c2b7" x="54.754688" y="41.233281" transform="rotate(-0 54.754688 41.233281)">Previsión publicada</text>
    </g>
    <g id="line2d_21">
     <path d="M 144.203438 38.083281 
L 151.403437 38.083281 
L 158.603438 38.083281 
" style="fill: none; stroke: #d95926; stroke-width: 1.5; stroke-linecap: round"/>
     <g>
      <use xlink:href="#m7afbdd8af4" x="151.403437" y="38.083281" style="fill: #d95926; stroke: #0d1117; stroke-width: 1.5"/>
     </g>
    </g>
    <g id="text_8">
     <text style="font-size: 9px; font-family: 'Segoe UI', 'Helvetica Neue', 'Arial', 'DejaVu Sans', sans-serif; text-anchor: start; fill: #c3c2b7" x="165.803438" y="41.233281" transform="rotate(-0 165.803438 41.233281)">Real (OMIE)</text>
    </g>
   </g>
  </g>
  <g id="axes_2">
   <g id="patch_4">
    <path d="M 31.354688 377.743281 
L 505.654688 377.743281 
L 505.654688 275.392512 
L 31.354688 275.392512 
z
" style="fill: #0d1117"/>
   </g>
   <g id="matplotlib.axis_3">
    <g id="xtick_8">
     <g id="line2d_22"/>
     <g id="text_9">
      <text style="font-size: 9px; font-family: 'Segoe UI', 'Helvetica Neue', 'Arial', 'DejaVu Sans', sans-serif; text-anchor: middle; fill: #898781" x="57.704688" y="390.295527" transform="rotate(-0 57.704688 390.295527)">13 sep</text>
     </g>
    </g>
    <g id="xtick_9">
     <g id="line2d_23"/>
     <g id="text_10">
      <text style="font-size: 9px; font-family: 'Segoe UI', 'Helvetica Neue', 'Arial', 'DejaVu Sans', sans-serif; text-anchor: middle; fill: #898781" x="127.971354" y="390.295527" transform="rotate(-0 127.971354 390.295527)">17 sep</text>
     </g>
    </g>
    <g id="xtick_10">
     <g id="line2d_24"/>
     <g id="text_11">
      <text style="font-size: 9px; font-family: 'Segoe UI', 'Helvetica Neue', 'Arial', 'DejaVu Sans', sans-serif; text-anchor: middle; fill: #898781" x="198.238021" y="390.295527" transform="rotate(-0 198.238021 390.295527)">21 sep</text>
     </g>
    </g>
    <g id="xtick_11">
     <g id="line2d_25"/>
     <g id="text_12">
      <text style="font-size: 9px; font-family: 'Segoe UI', 'Helvetica Neue', 'Arial', 'DejaVu Sans', sans-serif; text-anchor: middle; fill: #898781" x="268.504688" y="390.295527" transform="rotate(-0 268.504688 390.295527)">25 sep</text>
     </g>
    </g>
    <g id="xtick_12">
     <g id="line2d_26"/>
     <g id="text_13">
      <text style="font-size: 9px; font-family: 'Segoe UI', 'Helvetica Neue', 'Arial', 'DejaVu Sans', sans-serif; text-anchor: middle; fill: #898781" x="338.771354" y="390.295527" transform="rotate(-0 338.771354 390.295527)">29 sep</text>
     </g>
    </g>
    <g id="xtick_13">
     <g id="line2d_27"/>
     <g id="text_14">
      <text style="font-size: 9px; font-family: 'Segoe UI', 'Helvetica Neue', 'Arial', 'DejaVu Sans', sans-serif; text-anchor: middle; fill: #898781" x="373.904687" y="390.295527" transform="rotate(-0 373.904687 390.295527)">1 oct</text>
     </g>
    </g>
    <g id="xtick_14">
     <g id="line2d_28"/>
     <g id="text_15">
      <text style="font-size: 9px; font-family: 'Segoe UI', 'Helvetica Neue', 'Arial', 'DejaVu Sans', sans-serif; text-anchor: middle; fill: #898781" x="444.171354" y="390.295527" transform="rotate(-0 444.171354 390.295527)">5 oct</text>
     </g>
    </g>
   </g>
   <g id="matplotlib.axis_4">
    <g id="ytick_6">
     <g id="line2d_29">
      <path d="M 31.354688 377.743281 
L 505.654688 377.743281 
" clip-path="url(#pa7844a86a4)" style="fill: none; stroke: #2c2c2a; stroke-width: 0.75; stroke-linecap: square"/>
     </g>
     <g id="line2d_30"/>
     <g id="text_16">
      <text style="font-size: 9px; font-family: 'Segoe UI', 'Helvetica Neue', 'Arial', 'DejaVu Sans', sans-serif; text-anchor: end; fill: #898781" x="25.354688" y="381.019404" transform="rotate(-0 25.354688 381.019404)">0</text>
     </g>
    </g>
    <g id="ytick_7">
     <g id="line2d_31">
      <path d="M 31.354688 352.763086 
L 505.654688 352.763086 
" clip-path="url(#pa7844a86a4)" style="fill: none; stroke: #2c2c2a; stroke-width: 0.75; stroke-linecap: square"/>
     </g>
     <g id="line2d_32"/>
     <g id="text_17">
      <text style="font-size: 9px; font-family: 'Segoe UI', 'Helvetica Neue', 'Arial', 'DejaVu Sans', sans-serif; text-anchor: end; fill: #898781" x="25.354688" y="356.039209" transform="rotate(-0 25.354688 356.039209)">20</text>
     </g>
    </g>
    <g id="ytick_8">
     <g id="line2d_33">
      <path d="M 31.354688 327.78289 
L 505.654688 327.78289 
" clip-path="url(#pa7844a86a4)" style="fill: none; stroke: #2c2c2a; stroke-width: 0.75; stroke-linecap: square"/>
     </g>
     <g id="line2d_34"/>
     <g id="text_18">
      <text style="font-size: 9px; font-family: 'Segoe UI', 'Helvetica Neue', 'Arial', 'DejaVu Sans', sans-serif; text-anchor: end; fill: #898781" x="25.354688" y="331.059013" transform="rotate(-0 25.354688 331.059013)">40</text>
     </g>
    </g>
    <g id="ytick_9">
     <g id="line2d_35">
      <path d="M 31.354688 302.802695 
L 505.654688 302.802695 
" clip-path="url(#pa7844a86a4)" style="fill: none; stroke: #2c2c2a; stroke-width: 0.75; stroke-linecap: square"/>
     </g>
     <g id="line2d_36"/>
     <g id="text_19">
      <text style="font-size: 9px; font-family: 'Segoe UI', 'Helvetica Neue', 'Arial', 'DejaVu Sans', sans-serif; text-anchor: end; fill: #898781" x="25.354688" y="306.078818" transform="rotate(-0 25.354688 306.078818)">60</text>
     </g>
    </g>
    <g id="ytick_10">
     <g id="line2d_37">
      <path d="M 31.354688 277.8225 
L 505.654688 277.8225 
" clip-path="url(#pa7844a86a4)" style="fill: none; stroke: #2c2c2a; stroke-width: 0.75; stroke-linecap: square"/>
     </g>
     <g id="line2d_38"/>
     <g id="text_20">
      <text style="font-size: 9px; font-family: 'Segoe UI', 'Helvetica Neue', 'Arial', 'DejaVu Sans', sans-serif; text-anchor: end; fill: #898781" x="25.354688" y="281.098623" transform="rotate(-0 25.354688 281.098623)">80</text>
     </g>
    </g>
   </g>
   <g id="line2d_39">
    <path d="M 40.138021 344.673145 
L 57.704688 366.743408 
L 75.271354 307.686583 
L 92.838021 353.265032 
L 110.404687 299.38288 
L 127.971354 332.814058 
L 145.538021 350.388666 
L 163.104687 351.461123 
L 198.238021 341.743177 
L 215.804688 354.760981 
L 233.371354 362.235003 
L 250.938021 364.848426 
L 268.504688 366.071935 
L 286.071354 339.003682 
L 303.638021 353.53539 
L 338.771354 279.759636 
L 356.338021 292.800208 
L 373.904687 320.702176 
L 391.471354 334.458587 
L 461.738021 360.184546 
L 479.304688 341.394365 
L 496.871354 283.431854 
" clip-path="url(#pa7844a86a4)" style="fill: none; stroke: #199e70; stroke-width: 1.5; stroke-linecap: round"/>
    <defs>
     <path id="m3a2acce67b" d="M 0 3 
C 0.795609 3 1.55874 2.683901 2.12132 2.12132 
C 2.683901 1.55874 3 0.795609 3 0 
C 3 -0.795609 2.683901 -1.55874 2.12132 -2.12132 
C 1.55874 -2.683901 0.795609 -3 0 -3 
C -0.795609 -3 -1.55874 -2.683901 -2.12132 -2.12132 
C -2.683901 -1.55874 -3 -0.795609 -3 0 
C -3 0.795609 -2.683901 1.55874 -2.12132 2.12132 
C -1.55874 2.683901 -0.795609 3 0 3 
z
" style="stroke: #0d1117; stroke-width: 1.5"/>
    </defs>
    <g clip-path="url(#pa7844a86a4)">
     <use xlink:href="#m3a2acce67b" x="40.138021" y="344.673145" style="fill: #199e70; stroke: #0d1117; stroke-width: 1.5"/>
     <use xlink:href="#m3a2acce67b" x="57.704688" y="366.743408" style="fill: #199e70; stroke: #0d1117; stroke-width: 1.5"/>
     <use xlink:href="#m3a2acce67b" x="75.271354" y="307.686583" style="fill: #199e70; stroke: #0d1117; stroke-width: 1.5"/>
     <use xlink:href="#m3a2acce67b" x="92.838021" y="353.265032" style="fill: #199e70; stroke: #0d1117; stroke-width: 1.5"/>
     <use xlink:href="#m3a2acce67b" x="110.404687" y="299.38288" style="fill: #199e70; stroke: #0d1117; stroke-width: 1.5"/>
     <use xlink:href="#m3a2acce67b" x="127.971354" y="332.814058" style="fill: #199e70; stroke: #0d1117; stroke-width: 1.5"/>
     <use xlink:href="#m3a2acce67b" x="145.538021" y="350.388666" style="fill: #199e70; stroke: #0d1117; stroke-width: 1.5"/>
     <use xlink:href="#m3a2acce67b" x="163.104687" y="351.461123" style="fill: #199e70; stroke: #0d1117; stroke-width: 1.5"/>
     <use xlink:href="#m3a2acce67b" x="198.238021" y="341.743177" style="fill: #199e70; stroke: #0d1117; stroke-width: 1.5"/>
     <use xlink:href="#m3a2acce67b" x="215.804688" y="354.760981" style="fill: #199e70; stroke: #0d1117; stroke-width: 1.5"/>
     <use xlink:href="#m3a2acce67b" x="233.371354" y="362.235003" style="fill: #199e70; stroke: #0d1117; stroke-width: 1.5"/>
     <use xlink:href="#m3a2acce67b" x="250.938021" y="364.848426" style="fill: #199e70; stroke: #0d1117; stroke-width: 1.5"/>
     <use xlink:href="#m3a2acce67b" x="268.504688" y="366.071935" style="fill: #199e70; stroke: #0d1117; stroke-width: 1.5"/>
     <use xlink:href="#m3a2acce67b" x="286.071354" y="339.003682" style="fill: #199e70; stroke: #0d1117; stroke-width: 1.5"/>
     <use xlink:href="#m3a2acce67b" x="303.638021" y="353.53539" style="fill: #199e70; stroke: #0d1117; stroke-width: 1.5"/>
     <use xlink:href="#m3a2acce67b" x="338.771354" y="279.759636" style="fill: #199e70; stroke: #0d1117; stroke-width: 1.5"/>
     <use xlink:href="#m3a2acce67b" x="356.338021" y="292.800208" style="fill: #199e70; stroke: #0d1117; stroke-width: 1.5"/>
     <use xlink:href="#m3a2acce67b" x="373.904687" y="320.702176" style="fill: #199e70; stroke: #0d1117; stroke-width: 1.5"/>
     <use xlink:href="#m3a2acce67b" x="391.471354" y="334.458587" style="fill: #199e70; stroke: #0d1117; stroke-width: 1.5"/>
     <use xlink:href="#m3a2acce67b" x="461.738021" y="360.184546" style="fill: #199e70; stroke: #0d1117; stroke-width: 1.5"/>
     <use xlink:href="#m3a2acce67b" x="479.304688" y="341.394365" style="fill: #199e70; stroke: #0d1117; stroke-width: 1.5"/>
     <use xlink:href="#m3a2acce67b" x="496.871354" y="283.431854" style="fill: #199e70; stroke: #0d1117; stroke-width: 1.5"/>
    </g>
   </g>
   <g id="patch_5">
    <path d="M 31.354687 377.743281 
L 505.654687 377.743281 
" style="fill: none; stroke: #383835; stroke-width: 0.75; stroke-linejoin: miter; stroke-linecap: square"/>
   </g>
   <g id="line2d_40">
    <path d="M 40.138021 361.916766 
L 57.704688 367.102108 
L 75.271354 362.281061 
L 92.838021 355.20477 
L 110.404687 351.348192 
L 127.971354 344.916442 
L 145.538021 351.669682 
L 163.104687 363.089014 
L 198.238021 343.752781 
L 215.804688 351.201043 
L 233.371354 355.425949 
L 250.938021 357.747936 
L 268.504688 352.757752 
L 286.071354 353.335419 
L 303.638021 352.577035 
L 338.771354 339.676456 
L 356.338021 342.667444 
L 373.904687 354.886793 
L 391.471354 354.87118 
L 461.738021 361.058592 
L 479.304688 360.551572 
L 496.871354 337.812309 
" clip-path="url(#pa7844a86a4)" style="fill: none; stroke: #3987e5; stroke-width: 1.5; stroke-linecap: round"/>
    <g clip-path="url(#pa7844a86a4)">
     <use xlink:href="#m2481d50546" x="40.138021" y="361.916766" style="fill: #3987e5; stroke: #0d1117; stroke-width: 1.5"/>
     <use xlink:href="#m2481d50546" x="57.704688" y="367.102108" style="fill: #3987e5; stroke: #0d1117; stroke-width: 1.5"/>
     <use xlink:href="#m2481d50546" x="75.271354" y="362.281061" style="fill: #3987e5; stroke: #0d1117; stroke-width: 1.5"/>
     <use xlink:href="#m2481d50546" x="92.838021" y="355.20477" style="fill: #3987e5; stroke: #0d1117; stroke-width: 1.5"/>
     <use xlink:href="#m2481d50546" x="110.404687" y="351.348192" style="fill: #3987e5; stroke: #0d1117; stroke-width: 1.5"/>
     <use xlink:href="#m2481d50546" x="127.971354" y="344.916442" style="fill: #3987e5; stroke: #0d1117; stroke-width: 1.5"/>
     <use xlink:href="#m2481d50546" x="145.538021" y="351.669682" style="fill: #3987e5; stroke: #0d1117; stroke-width: 1.5"/>
     <use xlink:href="#m2481d50546" x="163.104687" y="363.089014" style="fill: #3987e5; stroke: #0d1117; stroke-width: 1.5"/>
     <use xlink:href="#m2481d50546" x="198.238021" y="343.752781" style="fill: #3987e5; stroke: #0d1117; stroke-width: 1.5"/>
     <use xlink:href="#m2481d50546" x="215.804688" y="351.201043" style="fill: #3987e5; stroke: #0d1117; stroke-width: 1.5"/>
     <use xlink:href="#m2481d50546" x="233.371354" y="355.425949" style="fill: #3987e5; stroke: #0d1117; stroke-width: 1.5"/>
     <use xlink:href="#m2481d50546" x="250.938021" y="357.747936" style="fill: #3987e5; stroke: #0d1117; stroke-width: 1.5"/>
     <use xlink:href="#m2481d50546" x="268.504688" y="352.757752" style="fill: #3987e5; stroke: #0d1117; stroke-width: 1.5"/>
     <use xlink:href="#m2481d50546" x="286.071354" y="353.335419" style="fill: #3987e5; stroke: #0d1117; stroke-width: 1.5"/>
     <use xlink:href="#m2481d50546" x="303.638021" y="352.577035" style="fill: #3987e5; stroke: #0d1117; stroke-width: 1.5"/>
     <use xlink:href="#m2481d50546" x="338.771354" y="339.676456" style="fill: #3987e5; stroke: #0d1117; stroke-width: 1.5"/>
     <use xlink:href="#m2481d50546" x="356.338021" y="342.667444" style="fill: #3987e5; stroke: #0d1117; stroke-width: 1.5"/>
     <use xlink:href="#m2481d50546" x="373.904687" y="354.886793" style="fill: #3987e5; stroke: #0d1117; stroke-width: 1.5"/>
     <use xlink:href="#m2481d50546" x="391.471354" y="354.87118" style="fill: #3987e5; stroke: #0d1117; stroke-width: 1.5"/>
     <use xlink:href="#m2481d50546" x="461.738021" y="361.058592" style="fill: #3987e5; stroke: #0d1117; stroke-width: 1.5"/>
     <use xlink:href="#m2481d50546" x="479.304688" y="360.551572" style="fill: #3987e5; stroke: #0d1117; stroke-width: 1.5"/>
     <use xlink:href="#m2481d50546" x="496.871354" y="337.812309" style="fill: #3987e5; stroke: #0d1117; stroke-width: 1.5"/>
    </g>
   </g>
   <g id="text_21">
    <text style="font-weight: 600; font-size: 11px; font-family: 'Segoe UI', 'Helvetica Neue', 'Arial', 'DejaVu Sans', sans-serif; text-anchor: start; fill: #ffffff" x="31.354688" y="249.392512" transform="rotate(-0 31.354688 249.392512)">Error medio absoluto de cada día (EUR/MWh)</text>
   </g>
   <g id="legend_2">
    <g id="line2d_41">
     <path d="M 33.154688 268.3247 
L 40.354688 268.3247 
L 47.554688 268.3247 
" style="fill: none; stroke: #3987e5; stroke-width: 1.5; stroke-linecap: round"/>
     <g>
      <use xlink:href="#m2481d50546" x="40.354688" y="268.3247" style="fill: #3987e5; stroke: #0d1117; stroke-width: 1.5"/>
     </g>
    </g>
    <g id="text_22">
     <text style="font-size: 9px; font-family: 'Segoe UI', 'Helvetica Neue', 'Arial', 'DejaVu Sans', sans-serif; text-anchor: start; fill: #c3c2b7" x="54.754688" y="271.4747" transform="rotate(-0 54.754688 271.4747)">Previsión publicada</text>
    </g>
    <g id="line2d_42">
     <path d="M 144.203438 268.3247 
L 151.403437 268.3247 
L 158.603438 268.3247 
" style="fill: none; stroke: #199e70; stroke-width: 1.5; stroke-linecap: round"/>
     <g>
      <use xlink:href="#m3a2acce67b" x="151.403437" y="268.3247" style="fill: #199e70; stroke: #0d1117; stroke-width: 1.5"/>
     </g>
    </g>
    <g id="text_23">
     <text style="font-size: 9px; font-family: 'Segoe UI', 'Helvetica Neue', 'Arial', 'DejaVu Sans', sans-serif; text-anchor: start; fill: #c3c2b7" x="165.803438" y="271.4747" transform="rotate(-0 165.803438 271.4747)">Ingenua (día anterior)</text>
    </g>
   </g>
  </g>
 </g>
 <defs>
  <clipPath id="pcca6787718">
   <rect x="31.354688" y="45.103281" width="474.3" height="153.526154"/>
  </clipPath>
  <clipPath id="pa7844a86a4">
   <rect x="31.354688" y="275.392512" width="474.3" height="102.350769"/>
  </clipPath>
 </defs>
</svg>
